<svg xmlns="http://www.w3.org/2000/svg" viewBox="0 0 500 180" role="img" aria-labelledby="logo-title logo-desc">
  <title id="logo-title">Logo completo LinkAidly</title>
  <desc id="logo-desc">Rama con aceitunas a la izquierda y el wordmark LinkAidly a la derecha en color oliva.</desc>
  <style>
    @font-face{
      font-family:'Montserrat';
      src:url('/fonts/Montserrat-700.woff2') format('woff2');
      font-weight:700; font-style:normal; font-display:swap;
    }
    .wm{font-family:'Montserrat', system-ui, -apple-system, 'Segoe UI', Roboto, 'Helvetica Neue', Arial, sans-serif; font-weight:700; letter-spacing:.5px}
  </style>	
  <!-- Icono -->
  <g transform="scale(0.40) translate(-16,-296)" color="#556B2F">      <!-- Rama con hojas -->
    <path fill="#556B2F" opacity="1.000000" stroke="none" 
	d="
    M151.593262,406.424683 
	C159.874634,409.100677 166.456024,414.231476 172.832703,420.184814 
	C173.101685,420.866974 173.293610,421.241608 173.811096,421.783386 
	C174.052078,421.993866 173.993484,421.992828 174.007095,421.966919 
	C174.211639,422.206726 174.429016,422.448700 174.865082,422.817719 
	C175.057358,422.968475 175.006470,422.992615 175.018799,422.967285 
	C175.216049,423.210236 175.430466,423.452362 175.866013,423.817810 
	C176.057663,423.967224 176.006592,423.991943 176.019562,423.966705 
	C176.214233,424.208557 176.426376,424.448761 176.861481,424.806793 
	C177.053986,424.951508 177.000610,424.998352 177.024292,424.971680 
	C177.222229,425.215302 177.430740,425.455872 177.864838,425.810669 
	C178.056122,425.954590 178.000122,425.991119 178.022964,425.966187 
	C178.218643,426.211884 178.426559,426.452179 178.862305,426.803375 
	C179.055038,426.944641 179.000000,427.000000 179.027557,426.972168 
	C179.223129,427.215698 179.428299,427.455261 179.862579,427.802460 
	C180.054550,427.941925 180.002151,427.998779 180.030121,427.971741 
	C180.224060,428.216431 180.428131,428.455688 180.862213,428.800781 
	C181.054153,428.939117 181.008392,428.991150 181.034668,428.968750 
	C181.226883,429.218964 181.431137,429.458984 181.865021,429.806488 
	C182.056290,429.946625 182.000610,430.000000 182.027161,429.972717 
	C182.224503,430.217072 182.431351,430.457733 182.865311,430.810486 
	C183.056351,430.953522 183.004990,431.000092 183.025879,430.972961 
	C183.223969,431.216858 183.434433,431.459015 183.868256,431.820740 
	C184.058380,431.969147 184.009476,431.996521 184.019836,431.970490 
	C184.217346,432.211639 184.432663,432.453735 184.866440,432.822540 
	C185.056732,432.974304 185.006134,432.997009 185.015961,432.971069 
	C185.219421,433.213226 185.438690,433.458405 185.869385,433.843445 
	C186.055161,434.006256 185.993576,434.001129 186.005402,433.972595 
	C186.414246,434.407684 186.487854,434.999359 186.860077,435.762146 
	C187.065430,435.970123 187.010300,435.992371 187.011917,435.962708 
	C187.174667,436.086304 187.335800,436.239624 187.754822,436.181274 
	C188.295013,436.318909 188.577301,436.668152 188.922623,437.234741 
	C189.100983,437.871338 189.298035,438.247803 189.808640,438.805847 
	C190.040512,439.030182 189.977173,439.006927 189.991791,438.976532 
	C190.412613,439.405151 190.488251,439.997162 190.856964,440.763275 
	C191.060928,440.973236 191.007370,440.994324 191.024536,440.971222 
	C191.226959,441.219482 191.442017,441.464722 191.871552,441.844910 
	C192.056274,442.006012 191.994202,442.002289 192.004944,441.973114 
	C192.410065,442.405151 192.488892,442.990936 192.853973,443.749878 
	C193.060211,443.954681 193.000610,443.997559 193.030807,443.974579 
	C193.234314,444.225769 193.443100,444.469574 193.873672,444.836487 
	C194.059982,444.989929 194.003525,444.995789 194.017273,444.970947 
	C194.417892,445.412415 194.487503,446.001740 194.858551,446.760193 
	C195.062943,446.967010 195.008926,446.998016 195.028290,446.973755 
	C195.228897,447.221222 195.441696,447.465485 195.872070,447.839355 
	C196.058105,447.996429 195.999786,447.999542 196.012177,447.973083 
	C196.424103,448.414886 196.486328,449.015930 196.859863,449.791718 
	C197.055664,450.011932 196.994507,450.000488 197.008789,449.972870 
	C197.420242,450.412231 197.486862,451.009338 197.860672,451.779114 
	C198.060867,451.993896 198.004654,451.990143 198.023621,451.969299 
	C198.421738,452.416931 198.486954,453.005219 198.859894,453.759216 
	C199.064484,453.964325 199.005295,453.994385 199.029144,453.971222 
	C199.231140,454.222656 199.442886,454.468323 199.872787,454.844330 
	C200.057343,455.003632 199.998230,454.998260 200.012909,454.972473 
	C201.249313,457.761719 203.084885,460.319397 203.828522,463.698364 
	C204.070114,463.960571 204.004318,463.995117 204.036530,463.980438 
	C204.442368,464.436523 204.483658,465.031342 204.865723,465.783691 
	C205.063080,465.994751 205.007584,465.986176 205.030640,465.970123 
	C209.986694,477.497101 212.138794,489.775513 214.429016,501.999023 
	C215.070145,505.420868 215.758301,508.823303 216.743164,512.564331 
	C217.444290,513.865662 217.946091,514.813416 218.746307,515.895691 
	C221.595734,505.134827 224.242645,494.264709 227.765350,483.262329 
	C227.959213,482.950958 228.001846,482.993713 227.974121,483.005707 
	C228.749847,482.333160 228.388306,481.350983 228.773132,480.232605 
	C228.959641,479.953339 228.997910,479.996582 228.969574,480.002106 
	C229.760056,479.328278 229.382248,478.338989 229.782104,477.224731 
	C229.973846,476.948029 229.999893,477.002716 229.969696,477.005096 
	C231.030807,475.720612 231.276016,474.123047 231.759979,472.253418 
	C231.942383,471.960602 231.994125,471.984772 231.965836,471.988098 
	C232.422699,471.593964 232.490936,471.010468 232.776443,470.211304 
	C232.930038,469.967255 232.996338,469.996338 232.963654,469.978821 
	C234.514023,465.786255 235.825241,461.516754 237.333771,457.314972 
	C239.370392,451.642212 238.361450,446.097168 236.179016,440.323914 
	C235.934692,440.026672 235.986008,440.003143 235.975433,440.029297 
	C235.776688,439.784058 235.559860,439.537872 235.130310,439.153015 
	C234.946228,438.989136 235.009766,438.993774 235.000229,439.024170 
	C234.580627,438.590668 234.512970,437.989166 234.141296,437.210083 
	C233.944672,436.989319 234.004669,437.002777 233.988754,437.029053 
	C233.576416,436.585144 233.513657,435.984283 233.139694,435.208466 
	C232.943604,434.988434 233.002625,435.005615 232.985031,435.030823 
	C232.327835,434.247711 232.157043,433.161285 231.169525,432.220276 
	C230.935104,432.020233 230.988724,432.003326 230.976166,432.028503 
	C230.449081,431.173798 229.862137,430.338898 229.145187,429.230621 
	C228.938995,429.004547 228.998230,428.998077 228.988998,429.026398 
	C228.582352,428.589752 228.512650,427.995422 228.140503,427.228790 
	C227.938339,427.016876 227.995300,427.012756 227.972321,427.029785 
	C227.572952,426.577881 227.513901,425.988800 227.138260,425.237244 
	C226.934647,425.032043 226.989029,425.003204 226.970505,425.027710 
	C226.771652,424.779388 226.559021,424.534637 226.127579,424.161011 
	C225.941101,424.004120 225.999557,424.003937 225.985855,424.029785 
	C225.584763,423.589844 225.512024,423.001801 225.142944,422.243134 
	C224.937973,422.036987 224.987137,422.007324 224.959000,422.023132 
	C224.567566,421.570312 224.514496,420.987213 224.138000,420.249329 
	C223.932281,420.051117 223.992264,420.010956 223.962585,420.027100 
	C223.760452,419.769348 223.552475,419.525818 223.125000,419.157257 
	C222.941025,419.001862 223.000290,419.000519 222.988312,419.027649 
	C222.577118,418.586151 222.513596,417.985321 222.139252,417.209961 
	C221.942368,416.990540 222.003494,416.997986 221.990356,417.025818 
	C221.577911,416.586609 221.513382,415.987549 221.139862,415.214722 
	C220.941879,414.997162 220.999573,415.005432 220.982117,415.028809 
	C220.573898,414.581848 220.514069,413.983246 220.137802,413.214233 
	C219.939697,412.997925 219.996140,413.008911 219.976562,413.029968 
	C219.145035,411.988251 219.005493,410.628632 218.159088,409.244080 
	C217.936340,409.005463 217.994019,409.001617 217.981003,409.027405 
	C217.575089,408.583313 217.513885,407.984222 217.137787,407.213837 
	C216.939560,406.997131 216.995514,407.006958 216.975433,407.027039 
	C214.282593,399.408173 211.166870,391.918121 209.469299,383.956696 
	C206.222397,368.728882 206.255875,353.473999 208.902496,338.177765 
	C209.211670,336.390900 209.655121,334.613953 209.759216,332.362671 
	C209.973145,331.950653 210.008301,332.002686 209.978546,332.012756 
	C210.909988,329.982513 211.466583,327.840515 211.767670,325.267029 
	C211.967911,324.950134 212.005905,324.999359 211.976837,325.010437 
	C212.414169,324.599915 212.491287,324.009460 212.790710,323.200500 
	C212.950134,322.954742 212.970963,323.009430 212.949417,322.989044 
	C213.730255,320.963348 214.668213,319.203033 217.698105,320.753510 
	C218.076935,320.968201 218.012329,321.009766 217.991516,320.977478 
	C218.199966,321.193817 218.435379,321.436462 218.862335,321.846130 
	C219.048645,322.018158 218.979889,322.019287 218.981247,321.984924 
	C219.206848,322.199066 219.438843,322.440155 219.864960,322.841736 
	C220.052353,323.008698 219.986267,323.010315 219.990189,322.977509 
	C220.205597,323.202728 220.433243,323.445587 220.866608,323.835999 
	C221.056198,323.998657 220.993469,324.007080 220.997055,323.975647 
	C221.208801,324.204987 221.435043,324.449005 221.867111,324.840973 
	C222.054855,325.005676 221.989334,325.011230 221.991608,324.978455 
	C222.211670,325.199615 222.440735,325.442993 222.865417,325.845581 
	C223.051300,326.013947 222.983154,326.020142 222.982315,325.985962 
	C223.210358,326.202728 223.445831,326.447388 223.875244,326.858215 
	C224.062698,327.030640 223.977783,327.003265 223.991455,326.960815 
	C224.654541,327.726868 224.834366,328.816010 225.823593,329.762146 
	C226.061462,329.960632 226.021530,330.002533 226.028748,329.974670 
	C226.223877,330.216919 226.440247,330.461914 226.870972,330.842194 
	C227.056885,331.002625 226.996536,330.998322 227.009430,330.970947 
	C227.551987,331.819763 228.136673,332.661499 228.852829,333.778961 
	C229.055450,334.010193 228.990738,334.001282 229.000610,333.970154 
	C229.407104,334.401947 229.488998,334.989929 229.856735,335.752319 
	C230.064178,335.957886 230.002441,335.998596 230.029907,335.973816 
	C230.231583,336.223297 230.441040,336.467285 230.873215,336.833740 
	C231.060699,336.986450 231.006271,337.004883 231.012695,336.976868 
	C231.497360,337.447845 231.449310,338.221710 232.244904,338.861389 
	C235.230591,342.132507 236.848068,345.861694 238.681046,349.870728 
	C238.587845,350.609314 238.508636,351.046600 238.818329,351.779663 
	C239.035507,352.047394 238.956650,352.006134 238.977264,351.966705 
	C239.407730,352.398712 239.488602,353.002747 239.854004,353.797974 
	C240.047852,354.025696 239.989227,353.999481 240.008209,353.973572 
	C240.783356,355.717712 241.183914,357.588531 241.825623,359.731201 
	C242.061584,360.004486 242.005035,359.993652 242.024490,359.972412 
	C249.877991,382.842072 249.426971,405.960205 243.937622,429.214722 
	C243.099777,432.764130 242.287369,436.315765 242.397369,440.368317 
	C245.249054,442.017761 245.490402,439.445831 246.418213,438.232910 
	C247.515854,436.797974 248.286331,435.112793 249.385529,433.275024 
	C250.231567,432.711945 250.500198,432.144836 250.813828,431.212921 
	C251.010284,430.950958 251.014084,431.018707 250.980179,431.017761 
	C251.196716,430.802429 251.434570,430.574921 251.812943,430.140503 
	C251.966034,429.946716 251.990372,429.997192 251.963531,429.989136 
	C252.436371,429.586823 252.487778,428.988495 252.799683,428.192627 
	C252.959259,427.949097 252.997116,427.990723 252.969070,427.992950 
	C253.434464,427.588867 253.486862,426.982513 253.822937,426.187592 
	C253.993790,425.947845 254.011642,426.008789 253.979919,426.010254 
	C254.198303,425.800720 254.434845,425.575439 254.808350,425.142456 
	C254.958893,424.949005 254.996765,424.991333 254.969604,424.983154 
	C255.444702,424.581024 255.485992,423.976349 255.814270,423.186829 
	C255.978897,422.946014 256.001862,423.000824 255.972137,423.000183 
	C256.200836,422.796448 256.440979,422.573639 256.814453,422.137512 
	C256.966064,421.943939 257.001160,421.987885 256.973053,421.988647 
	C257.542877,421.506226 257.477661,420.729340 257.885925,419.780396 
	C258.016144,418.178009 258.703949,417.229523 259.705383,416.123657 
	C260.322723,415.981415 260.572998,415.813477 260.805969,415.178955 
	C260.944519,414.944702 260.992371,414.984436 260.962097,414.977600 
	C262.178528,412.990997 263.206268,410.920959 263.747620,408.275208 
	C263.925903,407.973663 263.978363,407.997070 263.956665,407.981232 
	C264.436127,407.584961 264.489136,407.000305 264.775391,406.210327 
	C264.926605,405.967560 264.996338,406.000000 264.963165,405.982788 
	C265.779663,405.316467 265.375946,404.332367 265.766418,403.233490 
	C265.947205,402.954803 265.991730,402.989960 265.963379,402.989929 
	C267.847931,397.063324 270.969696,391.597321 272.780365,385.238159 
	C272.983917,384.921997 273.024109,385.000671 272.984802,385.020813 
	C273.268341,384.749725 273.554230,384.425842 273.903839,383.760254 
	C274.065063,383.069397 274.125580,382.687622 274.314911,382.155762 
	C276.270935,381.039520 276.136353,378.751923 277.723938,377.205139 
	C277.950104,376.938293 277.988953,376.980194 277.960388,376.980530 
	C278.948425,376.036163 278.962677,374.613739 279.780579,373.217102 
	C279.964142,372.947327 279.993469,372.995361 279.965607,372.991455 
	C280.844238,372.371674 281.166748,371.365692 281.805237,370.199219 
	C281.980225,369.944580 282.014069,370.000183 281.983704,370.011932 
	C282.277557,369.739960 282.559479,369.418701 282.900146,368.757507 
	C288.810699,358.398590 296.432159,349.981140 306.149048,343.089600 
	C306.869263,342.890228 307.247711,342.706146 307.790771,342.186401 
	C308.003784,341.947296 308.002655,342.009216 307.973267,341.999481 
	C308.208038,341.786865 308.453156,341.563110 308.846130,341.133484 
	C309.013031,340.948517 309.006653,341.012085 308.976349,341.001953 
	C309.406311,340.585724 310.000214,340.512146 310.767609,340.141418 
	C310.978821,339.938080 310.975433,339.994781 310.954529,339.975525 
	C311.543091,339.474091 312.077332,338.912323 312.814758,338.144165 
	C313.007782,337.927002 312.994843,337.997040 312.959839,337.990540 
	C313.984863,337.157135 315.344635,337.004303 316.732544,336.162231 
	C316.964142,335.930542 317.001892,335.977264 316.974182,335.965942 
	C317.219116,335.773254 317.463989,335.559998 317.838135,335.128052 
	C317.995087,334.941193 317.991089,334.998138 317.968384,334.980835 
	C319.006989,334.144836 320.369568,334.006287 321.754425,333.157074 
	C321.992035,332.932556 322.005707,332.993439 321.974579,332.991425 
	C322.202789,332.778778 322.449921,332.554749 322.852051,332.130585 
	C323.021179,331.945953 323.002747,332.011261 322.971008,331.999329 
	C323.993469,331.138092 325.371307,331.009888 326.769104,330.159943 
	C327.014771,329.941101 327.019104,330.009399 326.984863,330.009338 
	C327.418182,329.551392 328.091766,329.528748 328.811157,328.961304 
	C329.442444,328.469666 329.890350,328.232117 330.588196,327.932465 
	C338.852325,326.008911 346.669006,323.350494 354.778839,321.888031 
	C356.847900,321.514923 359.734528,320.017822 359.250519,324.685608 
	C359.048798,325.040405 358.996277,325.008484 359.019775,324.988708 
	C358.255219,325.668945 358.613708,326.657471 358.206940,327.777405 
	C358.008392,328.051422 357.977692,327.991943 358.008972,327.980042 
	C357.580597,328.403229 357.511078,329.006317 357.178894,329.812164 
	C357.007355,330.054138 356.982941,329.991638 357.015320,329.982880 
	C356.582825,330.401703 356.509857,330.999084 356.194977,331.807739 
	C356.030487,332.052582 356.006683,331.999268 356.035767,332.001648 
	C355.066223,332.961090 355.032166,334.374207 354.227173,335.780151 
	C354.046173,336.051880 354.005432,336.011566 354.033447,336.005585 
	C353.575134,336.405853 353.510437,337.000610 353.205170,337.804108 
	C353.045959,338.049225 353.004791,338.011139 353.032623,338.007751 
	C352.226166,338.681274 352.630646,339.685760 352.200806,340.798645 
	C352.006714,341.076324 351.986298,341.000580 352.024170,340.990356 
	C351.809937,341.200012 351.567871,341.430481 351.174561,341.863251 
	C351.014587,342.056366 351.000458,341.996124 351.031311,341.998352 
	C350.572174,342.407104 350.511261,343.006653 350.196716,343.809662 
	C350.034821,344.054413 350.011536,344.001068 350.040466,344.004150 
	C348.924866,344.914948 349.285980,346.498779 348.258911,347.806824 
	C348.042236,348.057098 348.000366,348.014069 348.028381,348.003296 
	C347.571991,348.407166 347.512085,349.011658 347.181458,349.812622 
	C347.012238,350.054504 346.993774,349.994812 347.025024,349.994141 
	C346.802521,350.199127 346.565155,350.422180 346.195831,350.856995 
	C346.047546,351.051361 346.010590,351.002380 346.037537,351.017242 
	C345.555359,351.418304 345.513611,352.020233 345.194763,352.810608 
	C345.034119,353.052826 345.001404,353.004303 345.030518,353.001251 
	C344.571533,353.407532 344.511719,354.009064 344.190369,354.810669 
	C344.025452,355.054108 344.000031,355.001221 344.029358,355.002258 
	C343.799744,355.203278 343.560211,355.424286 343.190216,355.859741 
	C343.040405,356.053223 343.030487,355.997101 343.052063,356.015717 
	C342.250214,356.708038 342.173553,357.856171 341.253754,358.828400 
	C341.058929,359.064362 341.007019,359.052643 341.031464,359.047180 
	C340.786407,359.219971 340.545319,359.430756 340.187622,359.866150 
	C340.042572,360.058258 340.008484,360.012299 340.036255,360.019104 
	C339.555420,360.417358 339.514282,361.025085 339.180908,361.815369 
	C339.014191,362.056000 339.000336,361.996918 339.030426,362.000793 
	C336.939636,364.325317 336.002228,367.539734 333.208008,369.777557 
	C333.014618,370.057220 332.990479,369.998688 333.021790,369.994080 
	C332.801880,370.208954 332.559814,370.438080 332.163849,370.866577 
	C332.000854,371.056274 332.002441,370.993713 332.032318,371.002991 
	C331.269592,371.946930 330.870911,373.270569 329.263000,373.842499 
	C329.039520,374.064056 329.004517,374.018524 329.032410,374.025269 
	C328.793793,374.211670 328.554779,374.422455 328.202454,374.858215 
	C328.061615,375.051971 328.000000,375.002441 328.030640,375.025421 
	C327.536652,375.429413 327.517426,376.048828 327.166809,376.831665 
	C327.000000,377.072662 326.984924,376.994720 327.023895,376.987152 
	C326.412933,377.479584 325.577820,377.789459 325.173157,378.964661 
	C324.568634,379.748047 324.103424,380.251099 323.416748,380.887573 
	C322.474304,381.413086 321.695953,381.736420 321.157837,382.817535 
	C320.975311,383.068085 320.991943,382.981750 321.035126,382.990051 
	C320.609741,383.393066 320.022797,383.490936 319.249939,383.852692 
	C319.041840,384.060883 319.009552,383.999420 319.031494,384.027405 
	C318.782959,384.224487 318.543610,384.429901 318.194214,384.862183 
	C318.052948,385.052765 318.003662,385.001221 318.029785,385.027832 
	C317.784790,385.222595 317.545349,385.427765 317.198364,385.861908 
	C317.059052,386.053833 317.009521,386.004883 317.030426,386.031372 
	C316.780762,386.226776 316.541412,386.432068 316.191895,386.864258 
	C316.050476,387.054688 316.009369,387.012390 316.038147,387.018738 
	C315.916199,387.170441 315.765503,387.315765 315.800537,387.714355 
	C315.647217,388.256348 315.308167,388.545074 314.758118,388.909393 
	C314.129425,389.102173 313.751587,389.295410 313.199738,389.811615 
	C312.979767,390.047028 312.987061,389.979797 313.020203,389.986511 
	C312.800842,390.211639 312.557312,390.439545 312.158783,390.866394 
	C311.993225,391.054138 312.001129,390.992981 312.028992,391.006195 
	C311.592072,391.414093 311.000854,391.487946 310.238068,391.859497 
	C310.029999,392.064606 309.995514,392.020935 310.022583,392.027191 
	C309.708405,392.287231 309.423676,392.594391 309.094788,393.250000 
	C307.514618,395.615906 305.404938,396.833710 302.851715,397.930115 
	C302.128204,398.103424 301.753632,398.299072 301.203339,398.813049 
	C300.986359,399.050110 301.003632,398.990479 301.029602,399.007446 
	C300.589508,399.416931 299.997314,399.487518 299.233643,399.859131 
	C299.023865,400.062439 299.010284,400.007538 299.033691,400.023438 
	C298.785065,400.221893 298.540558,400.435913 298.169739,400.871033 
	C298.015930,401.060730 298.002655,401.006500 298.027191,401.019836 
	C297.581848,401.426575 296.981995,401.485931 296.210449,401.861511 
	C295.992279,402.058197 295.994293,401.993439 296.025909,402.000488 
	C295.793335,402.211639 295.547852,402.436218 295.153870,402.866821 
	C294.986633,403.052338 294.992554,402.988007 295.023529,402.997162 
	C294.592163,403.417755 293.991791,403.487244 293.214508,403.859009 
	C292.995605,404.057281 293.006805,403.999146 293.030548,404.016846 
	C292.584625,404.422150 291.989807,404.486542 291.226379,404.862915 
	C291.015350,405.065216 291.003052,405.009491 291.029358,405.020508 
	C290.785278,405.221619 290.539337,405.439423 290.154480,405.869751 
	C289.991058,406.054657 289.992279,405.991119 290.023041,405.999084 
	C289.591125,406.419098 288.989716,406.487122 288.210022,406.857605 
	C287.988861,407.053772 288.004578,406.994843 288.029633,407.012207 
	C287.584503,407.423859 286.984772,407.486298 286.211700,407.861145 
	C285.993469,408.058472 286.005951,408.000519 286.029419,408.018646 
	C284.397858,409.314209 282.394440,409.837036 280.250092,410.830627 
	C279.998383,411.061432 280.001068,411.002258 280.027130,411.016327 
	C277.507782,412.403809 274.764038,413.381836 272.137939,415.243408 
	C271.815491,415.730469 271.628479,415.850494 271.252960,415.975220 
	C270.618195,416.435425 270.004883,416.483032 269.216919,416.855225 
	C268.994781,417.055573 268.999268,416.992828 269.028992,417.003113 
	C268.793030,417.211731 268.548615,417.433563 268.166809,417.869263 
	C268.008118,418.059692 267.992523,417.996124 268.025146,417.993652 
	C267.572998,418.406250 267.511993,419.011047 267.181519,419.813293 
	C267.012390,420.055664 266.971344,419.999481 267.000061,419.979828 
	C266.898773,420.106323 266.768799,420.252441 266.780029,420.655701 
	C266.572906,421.479523 266.224609,422.046204 265.707703,422.797546 
	C265.128906,423.097626 264.760254,423.291809 264.230713,423.807800 
	C264.028168,424.050629 264.029999,423.995117 264.049530,424.014862 
	C263.254089,424.705200 263.176392,425.841583 262.270020,426.810577 
	C262.076813,427.044678 262.017731,427.009369 262.043274,427.031708 
	C261.241364,427.709778 261.177979,428.851807 260.269897,429.811951 
	C260.077820,430.045502 260.029327,430.008789 260.047668,430.028687 
	C259.548615,430.423157 259.514160,431.022766 259.202576,431.808411 
	C259.046295,432.050781 259.003296,432.011963 259.031494,432.018341 
	C258.795258,432.209503 258.556335,432.422760 258.199768,432.857971 
	C258.056702,433.051453 258.020081,432.996277 258.044189,433.022156 
	C257.030121,433.974060 257.043823,435.406891 256.208740,436.787292 
	C256.022461,437.054047 255.994308,436.999481 256.024689,436.994934 
	C255.803345,437.197754 255.566971,437.421356 255.199005,437.856201 
	C255.052094,438.051208 255.008530,438.003418 255.037140,438.018646 
	C254.556061,438.417969 254.513229,439.017548 254.200790,439.808716 
	C254.042755,440.051849 254.005585,440.009247 254.033798,440.007477 
	C253.562286,440.412048 253.513870,441.024567 253.173431,441.824188 
	C253.004532,442.067535 252.972748,441.998718 253.007156,441.982788 
	C252.580231,442.402924 252.511307,443.008392 252.176544,443.816193 
	C252.004929,444.059235 251.975861,443.996216 252.007874,443.982849 
	C251.581299,444.403290 251.510529,445.003510 251.186066,445.810303 
	C251.017746,446.053497 250.990891,445.995911 251.022034,445.989655 
	C250.575943,446.404785 250.511658,447.009003 250.179901,447.812134 
	C250.009262,448.053955 249.982178,447.993103 250.014069,447.983459 
	C249.576645,448.404602 249.512115,449.012634 249.169739,449.816406 
	C248.994995,450.057312 248.986450,449.984955 249.022614,449.980682 
	C248.809906,450.198639 248.569138,450.429382 248.178314,450.862427 
	C248.020142,451.056244 248.000839,450.999268 248.030823,451.001495 
	C247.570221,451.408691 247.511551,452.008026 247.196228,452.808777 
	C247.034058,453.052765 246.998901,453.004089 247.028168,452.997467 
	C246.235855,453.674561 246.624405,454.674011 246.202087,455.788818 
	C246.004929,456.064270 245.970917,455.990692 246.007690,455.973694 
	C245.588501,456.397003 245.510117,456.999695 245.178253,457.810303 
	C245.004700,458.052582 244.994049,457.989136 245.026199,457.990417 
	C243.844452,460.008484 242.781479,462.086823 242.232269,464.749939 
	C242.042511,465.047638 242.002380,465.006104 242.030457,464.999390 
	C241.578979,465.403809 241.509750,465.996490 241.207306,466.801575 
	C241.048111,467.046753 241.010147,467.004486 241.038086,467.009552 
	C239.527603,470.699860 238.691071,474.635345 237.422882,479.114746 
	C241.654572,477.076996 243.889191,472.764893 247.426727,469.185791 
	C248.021744,468.825714 248.342209,468.626678 248.817856,468.160889 
	C249.007095,467.948059 249.003937,468.012024 248.973022,468.003601 
	C249.200211,467.796814 249.438644,467.577087 249.805527,467.142822 
	C249.953629,466.949646 249.993210,466.996338 249.966003,466.982239 
	C250.455719,466.576080 250.483566,465.955994 250.832153,465.163849 
	C250.998077,464.919586 251.010452,465.004639 250.967926,465.010864 
	C251.564819,464.558167 252.330078,464.236755 252.827560,463.189575 
	C253.000153,462.944977 253.012665,463.009308 252.979919,463.010254 
	C253.201523,462.796509 253.442627,462.567902 253.830994,462.134552 
	C253.991547,461.943817 254.002853,462.003265 253.973083,461.997864 
	C254.205093,461.791016 254.447510,461.568481 254.827698,461.134216 
	C254.984863,460.943604 254.997330,461.000519 254.969391,460.992249 
	C255.207275,460.787872 255.451050,460.567383 255.829559,460.131897 
	C255.986343,459.941223 255.998535,459.999451 255.969543,459.992798 
	C256.203705,459.792084 256.444672,459.573547 256.813568,459.137817 
	C256.963715,458.945129 257.001038,458.989532 256.974976,458.977173 
	C257.217560,458.775879 257.461731,458.559326 257.841370,458.129425 
	C258.001312,457.943634 258.020813,458.007690 257.987915,458.013763 
	C258.267578,457.745117 258.544678,457.438354 258.898071,456.809265 
	C259.461670,456.073669 259.913605,455.628540 260.576904,455.072327 
	C261.316315,454.626465 261.917511,454.508484 262.729858,454.161377 
	C262.944946,453.943787 262.987671,453.972961 262.969269,453.951965 
	C263.224121,453.767395 263.464081,453.564484 263.811859,453.132446 
	C263.952942,452.942657 264.000671,452.994171 263.973236,452.973206 
	C264.217651,452.775085 264.460358,452.564484 264.823181,452.130310 
	C264.972351,451.940277 265.002838,451.986420 264.975769,451.980835 
	C265.214874,451.779022 265.459595,451.558960 265.849213,451.132263 
	C266.015503,450.949463 266.006256,451.013275 265.975922,451.002411 
	C266.403687,450.590668 266.990173,450.511017 267.750641,450.146484 
	C267.956177,449.940491 267.974243,449.991119 267.959991,449.963745 
	C268.550629,449.466400 269.076630,448.912598 269.802063,448.154724 
	C269.991638,447.940247 270.001038,447.998535 269.972839,447.989807 
	C270.407166,447.587463 270.994720,447.511536 271.754730,447.144592 
	C271.960938,446.939331 272.000000,446.996613 271.976166,446.971771 
	C272.224823,446.766876 272.469574,446.554810 272.847290,446.127869 
	C273.007996,445.945068 273.003448,446.007202 272.974274,445.996277 
	C273.746429,445.321350 274.846100,445.155762 275.799988,444.169525 
	C276.007202,443.938599 276.003387,444.001709 275.973267,443.992126 
	C276.992493,443.142151 278.357880,443.008636 279.739044,442.160248 
	C279.971893,441.930908 280.001038,441.979187 279.973724,441.972198 
	C280.217529,441.775360 280.463959,441.557526 280.849731,441.127014 
	C281.013763,440.942291 280.998016,441.014862 280.961731,441.007019 
	C281.665802,440.290009 282.645142,440.604645 283.754822,440.169922 
	C284.006897,439.942291 283.987640,439.997009 283.968689,439.975037 
	C286.066162,438.953644 288.094025,437.727356 290.737854,437.169678 
	C291.000885,436.934418 290.995026,436.992432 290.971100,436.975769 
	C292.296265,435.967896 293.762909,435.319611 295.742554,435.171143 
	C296.004059,434.937317 295.992523,434.993530 295.972046,434.973389 
	C310.078888,429.316589 324.846558,427.968964 339.852448,428.720459 
	C345.718933,429.014313 351.614136,429.457733 357.498657,431.073059 
	C357.676270,431.667877 357.761597,431.820892 357.948883,432.216125 
	C357.915558,432.860229 357.718262,433.228210 357.246887,433.799347 
	C357.044189,434.041595 357.026398,433.996552 357.042450,434.018341 
	C356.787415,434.219177 356.544922,434.430908 356.183929,434.867554 
	C356.036865,435.059753 356.005066,435.010773 356.031403,435.023346 
	C355.787323,435.219055 355.544037,435.433014 355.177246,435.869141 
	C355.026642,436.060455 355.007355,436.007477 355.033875,436.017059 
	C354.791412,436.214294 354.547943,436.430664 354.178650,436.868011 
	C354.027313,437.060303 354.006592,437.007996 354.033081,437.017517 
	C353.789886,437.216095 353.545288,437.433411 353.170593,437.869568 
	C353.015381,438.060150 352.998108,438.003601 353.027283,438.008270 
	C352.792511,438.212067 352.549072,438.433746 352.167542,438.867554 
	C352.008911,439.057129 352.000671,438.997101 352.030182,439.003906 
	C351.795380,439.208893 351.552216,439.430298 351.174957,439.866943 
	C351.019714,440.058929 351.003693,440.003632 351.031464,440.011230 
	C350.794067,440.210693 350.552185,440.428467 350.182495,440.864258 
	C350.031311,441.056366 350.011749,441.003418 350.035950,441.017944 
	C349.790161,441.215881 349.547272,441.429962 349.182617,441.867249 
	C349.033783,442.059723 349.006622,442.009644 349.032623,442.021271 
	C348.789093,442.216980 348.546204,442.431305 348.180115,442.867615 
	C348.030182,443.059357 348.006866,443.008209 348.032776,443.019073 
	C347.789001,443.217041 347.545044,443.433167 347.173553,443.869354 
	C347.020294,444.060333 347.004425,444.004913 347.032227,444.012512 
	C346.793365,444.211639 346.550476,444.429688 346.179108,444.866455 
	C346.026886,445.058624 346.005707,445.006866 346.031799,445.016907 
	C345.789642,445.216156 345.546082,445.433075 345.172791,445.867981 
	C345.018341,446.058197 345.001892,446.003143 345.029602,446.010742 
	C344.791351,446.213776 344.547577,446.433807 344.168396,446.868073 
	C344.010773,447.057739 343.998566,446.999207 344.027893,447.005066 
	C343.793060,447.211517 343.549011,447.434143 343.164673,447.867981 
	C343.004303,448.057129 342.984161,447.995697 343.016235,447.991760 
	C342.736420,448.252014 342.463959,448.552399 342.115448,449.168854 
	C341.869446,449.646576 341.694977,449.793976 341.320404,449.956604 
	C340.654755,450.403259 340.039673,450.486725 339.225952,450.851196 
	C339.000122,451.058136 338.990967,450.996033 339.022125,450.999817 
	C338.719055,451.273041 338.431580,451.585480 338.094299,452.246338 
	C337.851898,454.300842 336.682159,454.891937 334.845520,455.051025 
	C334.120941,455.119598 333.745178,455.302856 333.201050,455.816406 
	C332.986603,456.052216 333.001251,455.991241 333.028656,456.006470 
	C332.590027,456.416931 331.996246,456.487488 331.229919,456.859497 
	C331.018433,457.062012 331.020721,457.005585 331.040100,457.026123 
	C330.396057,457.457367 329.657379,457.783356 329.166260,458.820496 
	C328.997192,459.062683 328.993774,458.997253 329.026337,459.000854 
	C328.596222,459.412018 327.999878,459.488007 327.226868,459.859222 
	C327.012878,460.061798 327.026550,460.005463 327.047241,460.025757 
	C324.967712,462.272095 322.242981,463.460602 319.233734,464.836395 
	C318.975189,465.066833 318.979187,464.987579 319.018799,464.989563 
	C318.596832,465.414703 317.991638,465.487915 317.197998,465.851318 
	C316.968658,466.041779 316.989166,465.976410 317.021149,465.988678 
	C316.591766,466.419769 315.987305,466.487091 315.201660,466.856140 
	C314.976227,467.049194 314.998108,466.988525 315.025665,467.005280 
	C314.314545,467.716125 313.343201,467.389587 312.249054,467.834351 
	C312.002655,468.063538 312.007538,468.007111 312.028503,468.026123 
	C311.576965,468.430756 310.977631,468.485229 310.209839,468.863281 
	C309.992767,469.059875 310.001190,468.999756 310.027649,469.014648 
	C309.583160,469.425934 308.980835,469.486053 308.202667,469.859314 
	C307.980103,470.052948 308.002289,469.993469 308.028564,470.011292 
	C307.449036,470.616058 306.554169,470.357788 306.024841,471.028625 
	C305.386383,471.525879 304.611694,471.764587 303.529572,472.016113 
	C297.647034,473.435974 292.256104,475.517029 286.272186,476.813477 
	C285.958710,477.051788 286.002808,476.976685 286.040375,476.998718 
	C280.555481,477.541962 275.275757,479.635315 269.325684,479.808289 
	C268.990845,480.060944 269.006500,480.006897 269.022675,480.029938 
	C261.238983,481.548218 253.370911,482.689545 245.308289,484.804810 
	C244.972900,485.048065 244.983383,484.980255 245.016937,484.987488 
	C244.591888,485.421051 243.985291,485.487122 243.193420,485.851257 
	C242.962982,486.039429 242.983368,485.971771 243.017197,485.981995 
	C242.593628,486.418793 241.988632,486.487366 241.199585,486.852692 
	C240.971954,487.043732 240.997589,486.982025 241.026703,486.998413 
	C240.592316,487.415039 239.998520,487.487671 239.232056,487.859772 
	C239.021271,488.063385 239.006226,488.009125 239.031082,488.022339 
	C238.785980,488.220490 238.542313,488.435303 238.170929,488.869263 
	C238.016907,489.058624 238.001038,489.002899 238.029144,489.009918 
	C237.790787,489.214478 237.545883,489.435852 237.161163,489.869232 
	C236.999817,490.057404 236.990005,489.993561 237.022278,489.994995 
	C236.800644,490.213043 236.556519,490.440125 236.157684,490.866455 
	C235.991730,491.053711 235.987564,490.987366 236.020752,490.989502 
	C235.801285,491.210297 235.558289,491.439178 235.159836,491.866638 
	C234.994751,492.054993 234.990173,491.989319 235.022980,491.992004 
	C234.797943,492.204712 234.555832,492.431488 234.170258,492.866455 
	C234.011078,493.057861 234.001251,492.998352 234.030731,493.004761 
	C233.799469,493.204102 233.560822,493.421326 233.198944,493.856750 
	C233.053650,494.050720 233.022568,493.995148 233.047546,494.015503 
	C232.562637,494.413910 232.511398,495.003815 232.220337,495.797607 
	C232.069016,496.042358 232.007111,496.022583 232.036407,496.026703 
	C231.222000,496.686829 231.625092,497.673859 231.224915,498.773621 
	C231.038849,499.050201 231.007294,499.002563 231.035858,499.002747 
	C225.515488,510.706970 224.383316,523.229797 224.548416,535.907776 
	C224.717209,548.869751 226.809769,561.624390 229.806305,574.644287 
	C230.057281,575.015808 229.999313,575.000671 230.017548,574.976929 
	C230.663696,577.546753 230.847702,580.235962 231.890244,583.144653 
	C232.059509,583.512573 232.002090,583.498230 232.021072,583.475464 
	C233.496750,589.548279 236.123047,595.283020 237.817627,601.685059 
	C238.065018,601.988525 238.008652,601.990601 238.028351,601.970459 
	C238.429672,602.422913 238.485443,603.019653 238.863403,603.783325 
	C239.062027,603.997253 239.006271,603.992371 239.026871,603.973389 
	C239.707123,604.702209 239.390030,605.664551 239.836243,606.754517 
	C240.063828,606.999878 240.006805,606.997803 240.023682,606.974731 
	C240.429733,607.421753 240.485504,608.020386 240.861786,608.788025 
	C241.058426,609.004822 240.999329,608.992798 241.016129,608.967712 
	C241.231140,609.235718 241.388763,609.549194 241.766785,609.924988 
	C243.470581,611.503113 243.529816,614.925659 245.717178,614.815857 
	C248.330521,614.684875 248.226227,611.356689 249.064697,609.307556 
	C252.128220,601.820740 254.718597,594.113708 259.723419,587.196777 
	C260.129272,587.098389 260.303040,587.246582 260.727844,587.161621 
	C260.978882,586.928406 260.981262,586.986328 260.956360,586.971558 
	C261.984131,585.960266 261.989288,584.461426 262.819153,582.979065 
	C262.993439,582.477661 263.080353,582.315857 263.325500,582.098145 
	C263.852692,581.910034 264.224060,581.719849 264.754883,581.203308 
	C264.956146,580.958618 264.971161,580.976807 264.959808,580.961975 
	C265.218140,580.774719 265.457855,580.567566 265.811127,580.135620 
	C265.954651,579.945496 265.995209,579.985229 265.967041,579.982117 
	C266.086517,579.836121 266.234131,579.693298 266.203857,579.298706 
	C267.645508,577.439270 269.264984,575.831482 271.166687,574.112915 
	C271.864746,573.896240 272.240173,573.710693 272.776733,573.192139 
	C272.984406,572.950867 272.989594,573.005127 272.968262,572.988159 
	C273.214874,572.778809 273.459595,572.560364 273.843048,572.130249 
	C274.005035,571.944580 273.999176,572.005249 273.971588,571.992310 
	C274.406219,571.589661 274.990448,571.511169 275.745026,571.144409 
	C275.946808,570.936218 275.973511,570.972290 275.966370,570.957031 
	C276.300354,570.697205 276.585510,570.399109 276.902161,569.747620 
	C278.259674,567.824158 280.053131,566.965698 282.148193,566.053589 
	C284.516052,565.309937 286.410980,564.213684 288.704407,563.172668 
	C288.975616,562.931519 289.000031,562.985901 288.976288,562.968018 
	C289.422943,562.571289 290.015564,562.514343 290.772034,562.137085 
	C290.981018,561.935608 290.972778,561.994080 290.964813,561.965088 
	C302.569916,556.745361 314.680420,554.342285 327.426666,555.234863 
	C329.573181,555.385132 331.814453,554.877686 331.263489,558.619202 
	C331.067657,559.037903 331.013947,559.037720 331.036133,559.023010 
	C330.797760,559.205688 330.557770,559.425537 330.188446,559.860840 
	C330.038513,560.053772 330.022919,559.999146 330.046600,560.014832 
	C329.039307,560.966858 329.041962,562.399353 328.207581,563.787354 
	C328.019958,564.054626 327.990997,563.999573 328.021515,563.993469 
	C327.800079,564.201111 327.561279,564.428589 327.180573,564.862793 
	C327.025574,565.055786 327.016449,564.998840 327.043030,565.010010 
	C326.257935,565.710205 326.170776,566.857727 325.240723,567.832458 
	C325.041931,568.067200 325.001373,568.027771 325.029419,568.024414 
	C324.791412,568.213623 324.548553,568.432068 324.174927,568.867310 
	C324.020966,569.058289 324.001495,569.001160 324.031586,569.003174 
	C323.567902,569.409668 323.512238,570.012512 323.189056,570.811951 
	C323.024200,571.055054 322.998596,571.002014 323.028046,571.002136 
	C322.799072,571.203857 322.559326,571.425659 322.187073,571.860718 
	C322.035828,572.053772 322.008362,572.002563 322.032532,572.018677 
	C321.788574,572.217285 321.547241,572.430176 321.185181,572.865112 
	C321.037628,573.056702 321.009796,573.007446 321.037048,573.014893 
	C320.556915,573.416077 320.514282,574.024658 320.177734,574.815308 
	C320.009094,575.055237 319.997742,574.994080 320.028717,574.997192 
	C319.479614,575.508362 318.944305,576.061951 318.229797,576.842773 
	C318.046906,577.066223 317.999817,577.036743 318.027283,577.032959 
	C317.717834,577.283081 317.429901,577.583313 317.117279,578.240540 
	C313.770111,583.864197 308.707581,587.204346 303.390320,590.594727 
	C302.535858,591.657898 301.541779,592.164734 300.249268,592.835327 
	C300.002869,593.064392 300.010254,593.002136 300.039093,593.014404 
	C298.502136,594.671387 296.642212,595.858398 294.258972,596.837524 
	C294.018921,597.070557 293.997711,597.015015 294.027344,597.017212 
	C293.788086,597.217957 293.540771,597.440552 293.147522,597.872437 
	C292.979919,598.057678 292.996094,597.991333 293.028687,598.001587 
	C292.007538,598.861206 290.630646,598.990417 289.232910,599.838867 
	C288.987579,600.057983 288.990326,599.993042 289.022034,600.000183 
	C288.587280,600.425903 287.975342,600.485779 287.184082,600.862061 
	C286.953522,601.052185 286.973206,600.966187 287.016235,600.975952 
	C286.596954,601.416809 285.984741,601.487122 285.185425,601.857666 
	C284.952454,602.047546 284.984070,601.967773 285.023987,601.983521 
	C284.327728,602.718445 283.344849,602.390137 282.231506,602.825806 
	C281.972992,603.046204 282.001465,602.988159 282.027344,603.007568 
	C281.310913,603.715515 280.338470,603.388245 279.239044,603.832642 
	C278.988159,604.057617 279.002258,603.998352 279.027771,604.015015 
	C278.581879,604.427185 277.979309,604.485962 277.200378,604.858398 
	C276.976776,605.050720 276.996704,604.989258 277.024963,605.004944 
	C276.314850,605.716553 275.342865,605.389526 274.246094,605.831909 
	C273.997406,606.058838 274.009155,606.004272 274.026062,606.026489 
	C273.296173,606.706909 272.335663,606.390381 271.248230,606.836121 
	C271.004242,607.064331 271.005524,607.008057 271.026184,607.027161 
	C270.572998,607.436279 269.968048,607.484497 269.191132,607.861206 
	C268.965820,608.050659 268.985596,607.981873 269.020020,607.991699 
	C268.298981,608.788574 267.114655,608.237122 266.136353,609.205811 
	C265.461914,609.665283 264.964081,609.798889 264.208191,609.953857 
	C263.511414,609.488831 262.983337,609.466064 262.195557,609.866333 
	C261.981171,610.054260 262.000183,609.994507 262.026550,610.011475 
	C261.583466,610.425537 260.982330,610.486145 260.207001,610.860107 
	C259.986572,611.055359 259.998413,610.994324 260.026031,611.008606 
	C259.585876,611.423279 258.985138,611.486511 258.208984,611.859131 
	C257.988739,612.054932 257.996796,611.991577 258.026855,612.002380 
	C257.400299,612.468994 256.624115,612.797913 256.176575,613.901428 
	C255.657364,614.666931 255.292450,615.170410 254.738373,615.814148 
	C253.846390,616.232666 253.489929,616.768250 253.193314,617.774963 
	C252.987259,618.048401 252.973480,617.983154 253.006714,617.980164 
	C252.576508,618.406494 252.511597,619.008545 252.176727,619.807678 
	C252.003250,620.046570 251.967056,619.991882 251.996948,619.978394 
	C251.643600,620.385376 251.461853,620.868042 251.740143,621.651611 
	C251.924438,622.684998 251.939972,623.507324 251.926926,624.740173 
	C251.466476,625.589783 251.470459,626.087708 251.867279,626.826660 
	C252.034149,627.037048 251.972870,627.005615 251.990204,626.975830 
	C252.420990,627.409973 252.486984,628.013733 252.854034,628.799683 
	C253.045410,629.026062 252.982285,629.005493 252.996643,628.975586 
	C253.420853,629.410522 253.486877,630.013245 253.857391,630.795044 
	C254.051712,631.018250 253.989792,631.002258 254.004395,630.973877 
	C254.421951,631.412476 254.486603,632.013672 254.859833,632.790588 
	C255.056305,633.010742 254.995743,633.001404 255.010040,632.974304 
	C255.423065,633.414307 255.486465,634.013367 255.860260,634.785645 
	C256.058044,635.003174 255.995438,635.003296 256.003845,634.973145 
	C256.212433,635.207642 256.434937,635.452026 256.867920,635.837830 
	C257.056122,635.999512 256.997253,635.996155 257.011414,635.970337 
	C257.417633,636.411072 257.487366,637.003845 257.860779,637.766968 
	C258.064606,637.976440 258.011475,637.995544 258.024658,637.970581 
	C258.222321,638.215637 258.436768,638.459290 258.869690,638.831482 
	C259.058167,638.986328 259.002502,638.990112 259.019653,638.968140 
	C259.419830,639.414612 259.487122,640.004639 259.861328,640.761658 
	C260.066315,640.967834 260.028168,641.007996 260.039856,640.985840 
	C260.312927,641.272888 260.562836,641.591125 260.926575,642.194458 
	C265.907745,646.106995 268.885223,651.393799 272.901245,656.150879 
	C273.104401,656.869934 273.297241,657.246948 273.812256,657.798706 
	C274.048523,658.017456 273.981049,658.025757 273.979492,657.991821 
	C274.243683,658.255737 274.537018,658.523376 275.130249,658.883606 
	C275.603302,659.112732 275.764343,659.261963 275.956818,659.604248 
	C276.362671,660.300354 276.491608,660.916138 276.844788,661.757568 
	C277.060394,661.986145 277.001068,661.995117 277.008911,661.966187 
	C277.417480,662.446960 278.036713,662.484558 278.833893,662.833984 
	C279.078064,663.002686 278.991882,663.012939 278.986694,662.969849 
	C279.446930,663.570129 279.773346,664.341125 280.828308,664.843811 
	C281.074829,665.018188 280.982727,665.019104 280.980164,664.973145 
	C281.475281,665.586243 281.790405,666.422485 282.971802,666.832275 
	C283.745758,667.402100 284.237823,667.831299 284.865265,668.466003 
	C285.164734,669.019775 285.373230,669.339050 285.836029,669.825684 
	C286.046051,670.021912 285.978210,670.013184 285.984741,669.979614 
	C286.210236,670.198608 286.439178,670.441772 286.866516,670.840698 
	C287.054688,671.006104 286.988953,671.011047 286.991272,670.978149 
	C287.211182,671.198792 287.439484,671.442200 287.866699,671.840820 
	C288.054779,672.006165 287.991455,671.998596 288.002289,671.968628 
	C288.825195,672.863342 289.714935,673.711853 290.830536,674.767456 
	C291.064850,674.966248 291.017822,674.999023 291.016968,674.970337 
	C291.211395,675.206787 291.431244,675.449707 291.867188,675.824707 
	C292.058777,675.979004 292.001526,675.998840 292.002991,675.968567 
	C292.412323,676.438721 293.027771,676.485718 293.827087,676.832642 
	C294.069946,677.003784 293.990662,677.024231 293.980377,676.984619 
	C294.199677,677.193420 294.434875,677.436401 294.862427,677.845581 
	C295.049011,678.017395 294.979736,678.026428 294.975891,677.991699 
	C295.261536,678.277222 295.581421,678.562927 296.242004,678.913330 
	C299.896271,680.897705 302.787476,683.369202 305.765381,686.226685 
	C306.240234,687.172302 306.789825,687.507935 307.785797,687.815308 
	C308.058319,688.021301 307.985962,687.989563 308.001831,687.953369 
	C308.841187,689.272705 309.387726,690.718750 309.274475,692.667053 
	C309.092163,693.013306 309.117645,693.064026 309.089294,693.065430 
	C308.493469,693.562195 308.223511,694.357788 307.257477,694.858215 
	C307.055878,695.062012 307.045471,695.075256 307.037476,695.078186 
	C306.305450,695.582458 305.489105,695.500916 304.319580,695.260254 
	C303.961029,695.066956 303.983276,695.020386 303.974518,695.039001 
	C303.784760,694.790344 303.572937,694.550293 303.137268,694.193848 
	C302.944275,694.050232 302.991119,694.009094 302.979034,694.037842 
	C302.582886,693.557434 301.984711,693.512939 301.192322,693.204102 
	C300.948578,693.047424 300.981567,693.002441 300.987061,693.029785 
	C300.557892,692.513000 299.883453,692.516235 299.015503,692.172363 
	C298.732544,692.029480 298.325684,692.003906 298.124756,691.969604 
	C297.773193,691.827087 297.622620,691.718811 297.249817,691.442993 
	C292.955414,688.798584 289.783081,685.277588 286.181763,681.807495 
	C285.902313,681.131226 285.704620,680.756226 285.188660,680.206970 
	C284.950470,679.990540 285.013947,679.998596 285.003113,680.028687 
	C284.792572,679.796387 284.570831,679.554199 284.134521,679.178223 
	C283.942108,679.024170 283.996399,679.000549 283.994873,679.030151 
	C283.585449,678.561829 282.981506,678.510193 282.181213,678.190674 
	C281.675201,677.877686 281.440552,677.696045 281.114349,677.284973 
	C280.573059,676.628235 280.515839,676.017883 280.144226,675.232666 
	C279.937622,675.016174 279.994110,675.008911 279.980560,675.033936 
	C279.783203,674.789307 279.568970,674.546387 279.132355,674.180725 
	C278.940369,674.031128 278.991119,674.003845 278.989349,674.032593 
	C278.566284,673.526428 277.913452,673.514893 277.068939,673.175781 
	C276.555664,672.919739 276.348541,672.767090 276.076843,672.397400 
	C275.630707,671.692383 275.509399,671.076172 275.152649,670.239014 
	C274.937866,670.011047 274.995972,670.007202 274.983398,670.033447 
	C274.784790,669.790710 274.569427,669.547607 274.132507,669.180298 
	C273.940338,669.029968 273.992371,669.008301 273.981323,669.034241 
	C273.786743,668.792419 273.573273,668.551147 273.137085,668.190063 
	C272.944305,668.043640 272.999298,668.008850 272.977600,668.033508 
	C272.781189,667.787903 272.572296,667.547241 272.136841,667.193481 
	C271.944489,667.050598 271.998291,667.000000 271.973907,667.027222 
	C271.775055,666.782471 271.565948,666.540466 271.131653,666.181641 
	C270.941101,666.034973 270.991089,666.004211 270.993042,666.033508 
	C270.839905,665.912598 270.684875,665.762329 270.268677,665.803589 
	C269.725861,665.654236 269.444153,665.313354 269.092712,664.760681 
	C268.903564,664.130371 268.704224,663.754150 268.190643,663.197754 
	C267.956543,662.975098 268.024231,662.986511 268.016663,663.019958 
	C267.789429,662.800476 267.559448,662.557312 267.136139,662.152039 
	C266.951691,661.981628 267.016510,661.994385 267.005585,662.025513 
	C265.175354,659.850098 262.591309,658.299744 261.175720,655.272705 
	C260.943024,654.998474 261.004791,654.994690 260.997437,655.024780 
	C258.476013,653.020935 257.284454,650.022461 255.202728,647.240601 
	C254.939346,647.000061 255.003250,646.988770 255.002960,647.021240 
	C254.605301,646.612122 254.182327,646.194092 253.609039,645.511475 
	C248.227478,638.280823 243.938721,630.715088 239.404297,622.885254 
	C239.194107,622.599060 239.149597,622.228271 239.134689,622.042175 
	C239.191711,621.691345 239.263641,621.526550 239.154480,621.161926 
	C238.973389,620.962097 239.028564,621.000366 239.006592,621.025757 
	C237.551315,619.943237 237.793243,617.631287 235.707901,616.589478 
	C234.375595,613.882629 232.632614,611.961609 230.171143,610.224609 
	C229.924820,610.005005 230.001175,609.982910 230.012238,610.021118 
	C230.023300,610.059265 229.651932,609.746277 229.432861,609.641113 
	C229.213776,609.535889 228.753403,609.378540 228.534622,609.271118 
	C228.315842,609.163757 227.861221,608.984985 227.632858,608.895996 
	C227.404495,608.807068 226.964233,608.587402 226.751404,608.461548 
	C226.538574,608.335632 226.113541,608.077637 225.903351,607.941711 
	C225.566315,607.695618 225.439453,607.585510 225.124649,607.304443 
	C224.789459,607.047119 224.642212,606.960815 224.269547,606.748291 
	C223.892059,606.538269 223.739960,606.454407 223.359528,606.240173 
	C222.967743,606.042480 222.804260,605.975220 222.399567,605.791565 
	C221.996689,605.595398 221.835007,605.515564 221.433716,605.306030 
	C220.841049,605.069458 220.480225,605.003479 219.837555,604.909790 
	C219.389053,604.768982 219.216019,604.689636 218.789856,604.472717 
	C218.186966,604.155151 217.815262,604.048218 217.122543,603.962891 
	C216.628754,603.845459 216.438019,603.766113 215.993286,603.508057 
	C214.670868,602.161804 213.043686,602.654175 211.472122,601.969238 
	C210.933609,601.879028 210.724167,601.823303 210.215881,601.628174 
	C208.728577,599.808350 206.919998,599.978149 204.881592,599.745239 
	C198.169937,595.632690 190.609039,593.911194 184.274811,589.062256 
	C183.734314,588.823181 183.522278,588.721619 182.991730,588.474487 
	C182.056412,588.004211 181.543961,587.532532 180.681824,586.966675 
	C180.177765,586.697693 179.975510,586.590393 179.500046,586.277344 
	C178.119202,585.091675 177.173004,583.919373 175.540283,583.117737 
	C175.061401,582.939148 174.872345,582.862366 174.416000,582.642578 
	C173.979752,582.392456 173.810776,582.285400 173.411346,581.991333 
	C173.016479,581.697510 172.852051,581.590698 172.443237,581.324951 
	C172.023376,581.085510 171.847931,581.005066 171.412933,580.799927 
	C170.798218,580.519226 170.500504,580.289124 170.143585,579.723694 
	C170.026703,579.463013 170.012451,579.180542 170.000122,579.039673 
	C166.919113,575.757202 163.712830,572.753662 160.400909,569.308655 
	C156.021164,564.411865 152.220139,559.567749 149.093536,553.855530 
	C148.898499,553.127319 148.702560,552.751709 148.192596,552.195679 
	C147.961273,551.972046 148.024994,551.991028 148.011505,552.021362 
	C147.484100,551.651123 147.312241,551.097961 147.120636,550.231201 
	C146.945938,549.986633 147.004211,550.002319 146.986237,550.026489 
	C144.469711,546.206726 143.360382,541.732178 141.390518,537.641846 
	C140.673752,536.153564 139.828308,534.248596 141.021896,532.580688 
	C142.461716,530.568726 144.298645,532.118591 146.009750,532.261841 
	C152.332718,532.791321 158.263535,534.932251 164.684052,536.749756 
	C165.045563,536.949463 165.010742,536.995056 165.001068,536.968018 
	C165.672501,537.762146 166.667313,537.378784 167.779663,537.793457 
	C168.053619,537.991028 167.993134,538.021057 167.980957,537.989563 
	C168.405350,538.424377 169.016983,538.487671 169.827240,538.829468 
	C170.072632,539.000427 169.998062,539.043091 169.976669,539.005859 
	C170.297714,539.306519 170.709457,539.472290 171.509674,539.327637 
	C173.412643,539.956482 174.996445,540.723877 176.841248,541.690796 
	C178.090149,543.573059 179.969345,543.802185 181.779510,544.777222 
	C182.053375,544.963989 182.007477,544.999329 182.003906,544.970581 
	C182.203156,545.200317 182.425812,545.440430 182.861893,545.813721 
	C183.055496,545.965210 183.005661,545.991394 183.012360,545.964050 
	C183.414581,546.439575 184.018982,546.486694 184.813171,546.812378 
	C185.055298,546.976746 185.002731,547.016541 184.986771,546.987671 
	C185.112823,547.091858 185.254852,547.224915 185.655548,547.222778 
	C186.759857,547.965637 187.605469,548.843750 188.727264,549.860168 
	C189.210022,550.244812 189.436798,550.470764 189.870743,550.827515 
	C190.057709,550.978516 190.001221,550.999329 190.002731,550.969238 
	C190.410721,551.434814 191.019196,551.486694 191.815613,551.825134 
	C192.056137,551.996155 191.993744,552.017151 191.987946,551.984741 
	C192.202728,552.201782 192.433640,552.441223 192.865463,552.831787 
	C193.056015,552.992920 192.995621,553.002319 193.001190,552.972290 
	C193.208878,553.204956 193.432159,553.448181 193.867432,553.830261 
	C194.058258,553.988464 193.997543,554.007751 193.995041,553.976013 
	C194.419769,554.448914 195.047958,554.488647 195.880417,554.812622 
	C197.654709,556.389038 199.172409,557.802368 200.861725,559.473999 
	C201.348282,560.285889 201.494019,560.894897 201.838104,561.734131 
	C202.059082,561.956970 201.999893,561.983032 202.028961,561.964478 
	C202.224503,562.216858 202.428604,562.455811 202.861755,562.801270 
	C203.053207,562.939941 203.007507,562.995056 203.033722,562.970215 
	C203.224930,563.217224 203.428421,563.456299 203.862152,563.800537 
	C204.053909,563.938477 204.009857,563.990234 204.035614,563.968140 
	C204.225815,564.218018 204.429001,564.457031 204.862534,564.800903 
	C205.054138,564.938782 205.060242,564.952881 205.063553,564.959351 
	C205.317978,565.275696 205.562225,565.590820 205.926208,566.182190 
	C209.659485,567.677917 210.994629,571.011597 212.963104,574.132324 
	C213.533844,575.462891 214.193497,576.401123 214.833527,577.718750 
	C215.069199,577.966187 215.024841,578.003052 215.032944,577.975464 
	C215.226791,578.219177 215.442062,578.464661 215.870819,578.846558 
	C216.054749,579.008850 215.991837,579.004883 216.001678,578.974976 
	C216.420670,579.410278 216.486771,580.013062 216.859543,580.793274 
	C217.055481,581.015076 216.993210,581.002380 217.006683,580.973633 
	C217.419479,581.411255 217.487015,582.008850 217.860306,582.780151 
	C218.060211,582.995667 218.004959,582.986511 218.026688,582.968750 
	C218.856369,584.017151 218.994553,585.378357 219.841217,586.766479 
	C220.059967,587.009155 219.992249,587.013489 219.992920,586.979553 
	C220.211624,587.199585 220.440796,587.443115 220.864151,587.847595 
	C221.048752,588.017517 220.981277,588.018433 220.983994,587.984802 
	C221.496353,588.435425 221.452148,589.217041 222.235199,589.874756 
	C223.665604,591.661987 224.691971,593.376404 225.956116,594.892639 
	C227.025864,596.175781 227.171707,595.140869 227.178589,593.996094 
	C227.988754,591.877502 226.371353,590.311035 226.167480,588.251099 
	C225.935684,587.997070 225.991943,588.003296 225.972473,588.023926 
	C221.527847,571.848572 219.296387,555.276184 217.523529,538.629395 
	C217.148209,535.105164 216.040405,531.852844 214.191330,528.385803 
	C213.932617,528.043335 213.974289,527.994202 213.962189,528.022827 
	C213.770309,527.778259 213.557922,527.533264 213.126862,527.159180 
	C212.940842,527.001770 213.000580,527.000366 212.989471,527.028076 
	C212.580597,526.588562 212.512985,525.991211 212.139740,525.220215 
	C211.939789,525.004822 212.000168,525.002197 211.989975,525.030640 
	C211.786850,524.792175 211.567993,524.548462 211.132736,524.172363 
	C210.942245,524.016724 210.996307,523.992310 210.996460,524.021973 
	C210.745880,523.744263 210.462082,523.471863 209.867706,523.123047 
	C207.527435,520.980530 205.459564,518.954773 203.201050,516.689270 
	C202.872711,516.062134 202.670334,515.712158 202.177704,515.192871 
	C201.952225,514.986084 202.017075,514.994629 202.007507,515.025879 
	C201.796799,514.799744 201.575638,514.560852 201.142090,514.189697 
	C200.949722,514.038940 201.005417,514.027161 200.983765,514.046021 
	C200.259750,513.235535 199.088165,513.152649 198.080902,512.221191 
	C197.597198,511.957550 197.392990,511.834503 197.109863,511.518799 
	C196.848694,511.011536 196.643372,510.680664 196.168793,510.183777 
	C195.952026,509.985168 196.019089,509.981323 196.017441,510.014862 
	C195.734772,509.721436 195.416809,509.435547 194.756424,509.088470 
	C193.721451,508.484344 192.991852,507.982635 192.121201,507.244781 
	C192.117996,506.840118 192.255844,506.671600 192.162598,506.272247 
	C191.931519,506.041443 191.999847,506.009216 191.966995,506.030151 
	C191.772339,505.780182 191.571106,505.542755 191.139145,505.203613 
	C190.947845,505.068451 190.963547,505.039612 190.948547,505.045349 
	C190.771317,504.779419 190.569565,504.541168 190.137177,504.199738 
	C189.945999,504.063141 189.986374,504.013855 189.961761,504.034058 
	C189.773636,503.781586 189.570755,503.542297 189.136719,503.198761 
	C188.944901,503.061127 188.992538,503.009247 188.965668,503.031433 
	C188.772110,502.780182 188.567154,502.539307 188.132874,502.189117 
	C187.941803,502.047272 187.995178,502.002441 187.973969,502.029877 
	C187.779297,501.786285 187.570953,501.545441 187.135498,501.191895 
	C186.943314,501.049042 186.998169,501.002319 186.974640,501.029602 
	C186.778793,500.785797 186.571106,500.545258 186.135956,500.193115 
	C185.943863,500.050934 186.001053,500.037659 185.973358,500.052917 
	C183.986923,498.830353 182.065109,497.556854 181.090973,494.883118 
	C175.219879,491.217255 172.194061,485.641113 168.984802,479.888062 
	C168.794571,478.887848 168.490509,478.253815 168.174942,477.297607 
	C167.940964,477.040222 167.999390,477.012939 167.970261,477.031250 
	C167.768295,476.776428 167.560013,476.533722 167.128357,476.171387 
	C166.940414,476.021301 166.995575,476.009216 166.976379,476.029938 
	C166.577011,475.582153 166.513275,474.992798 166.139832,474.237640 
	C165.936127,474.031342 165.988190,473.999695 165.970810,474.024536 
	C165.769867,473.777802 165.555908,473.532684 165.128815,473.151703 
	C164.946045,472.989319 165.009857,472.992798 165.001114,473.023499 
	C164.581940,472.591675 164.512772,471.991608 164.141174,471.214813 
	C163.942978,470.996063 164.001022,471.003418 163.984222,471.027405 
	C163.573868,470.582214 163.513977,469.983124 163.138718,469.212708 
	C162.941452,468.995392 163.000275,469.003021 162.984253,469.028015 
	C162.572617,468.581787 162.514114,467.979340 162.141617,467.200806 
	C161.949219,466.977386 162.014008,466.992401 162.002396,467.023560 
	C161.579712,466.590210 161.513092,465.987274 161.142471,465.205109 
	C160.947922,464.981903 161.004822,465.004242 160.984802,465.027313 
	C159.906342,461.838776 158.557022,458.735962 157.173859,455.282104 
	C156.934143,455.008057 156.990051,455.002136 156.973785,455.025085 
	C156.291763,454.302399 156.608765,453.339935 156.165710,452.250183 
	C155.937241,452.005615 155.993332,452.010010 155.969543,452.025085 
	C155.293915,451.290070 155.611404,450.328552 155.165100,449.236023 
	C154.941864,448.987122 154.998062,449.002899 154.977814,449.023926 
	C154.139740,447.976959 154.695282,446.695160 154.174927,445.270691 
	C153.937347,444.997498 153.992554,445.007812 153.970581,445.025299 
	C153.293701,444.293640 153.610458,443.332123 153.165192,442.240479 
	C152.940247,441.993011 152.994690,442.005341 152.972198,442.021881 
	C151.063126,432.617310 150.244003,423.067169 149.508713,413.507355 
	C149.354919,411.507996 149.603363,409.569672 150.743347,407.349609 
	C150.968689,406.946167 151.005173,406.992584 150.976379,406.999084 
	C151.090866,406.876312 151.234146,406.747009 151.593262,406.424683 
    z"/>

      <!-- Aceituna Izquierda -->
    <path fill="currentColor" opacity="1.000000" stroke="none" 
	d="
    M269.177734,554.957886 
	C268.941772,555.459778 268.801422,555.651672 268.457214,555.899658 
	C267.962219,556.169067 267.647522,556.384155 267.158508,556.842773 
	C266.958252,557.048340 266.984131,556.963989 267.026337,556.976868 
	C266.602600,557.407104 265.999329,557.488708 265.206604,557.854553 
	C264.980865,558.050171 265.005707,557.993164 265.029541,558.013123 
	C258.466278,561.348572 251.926697,561.679932 245.202789,557.394104 
	C244.950195,557.067078 244.990967,557.022217 244.969269,557.039062 
	C244.778488,556.785645 244.573044,556.546631 244.139404,556.199463 
	C243.947617,556.060120 243.985977,556.008423 243.962067,556.031616 
	C243.774246,555.782227 243.571182,555.542847 243.137665,555.198120 
	C242.946320,555.059570 242.986572,555.017761 242.962952,555.032959 
	C242.766113,554.774475 242.557465,554.531128 242.126282,554.166138 
	C241.939178,554.014221 241.995010,554.010925 241.975571,554.031006 
	C237.014420,543.693726 238.690506,533.248840 241.750732,522.369629 
	C241.958557,521.950867 241.998810,521.993591 241.970612,522.001709 
	C242.424530,521.594910 242.488831,520.993958 242.809082,520.189392 
	C242.974197,519.945312 243.000809,519.997925 242.971375,519.997803 
	C243.201111,519.795898 243.441452,519.573669 243.814514,519.137634 
	C243.966064,518.944214 243.992188,518.994141 243.964691,518.987976 
	C244.438736,518.585815 244.486923,517.982544 244.810211,517.187744 
	C244.973770,516.945312 244.998444,516.998169 244.969360,516.996216 
	C245.200546,516.796143 245.440460,516.575928 245.808960,516.139587 
	C245.957932,515.945679 245.990952,515.998962 245.966553,515.978882 
	C246.209824,515.783997 246.448441,515.575806 246.798187,515.141907 
	C246.938370,514.949463 246.984726,514.982971 246.965988,514.960938 
	C247.218201,514.774048 247.456589,514.570984 247.800232,514.138672 
	C247.938049,513.947571 248.000000,514.000000 247.967590,513.975952 
	C248.287231,513.661743 248.479538,513.285706 248.685349,512.542847 
	C248.836075,512.249695 249.121872,512.083557 249.281982,512.042358 
	C250.114197,511.790344 250.759979,511.489838 251.737595,511.175873 
	C252.005920,510.946259 251.982773,510.997772 251.968506,510.973389 
	C257.325470,508.750336 262.740265,508.170471 268.640625,510.729797 
	C269.047638,510.948730 269.015564,510.998138 269.019501,510.969177 
	C269.210541,511.205658 269.425537,511.446167 269.861572,511.808075 
	C270.054749,511.954437 270.001221,511.995087 270.023010,511.969238 
	C270.219574,512.212952 270.428223,512.453064 270.862549,512.806519 
	C271.054382,512.949280 271.002441,513.000000 271.026764,512.974487 
	C271.229187,513.221497 271.440399,513.465210 271.872223,513.833984 
	C272.059692,513.987671 272.003265,513.988892 272.020172,513.966309 
	C272.414062,514.410889 272.488129,514.993958 272.858704,515.742493 
	C273.068237,515.941223 273.023621,515.975464 273.048828,515.965820 
	C273.240356,516.231140 273.445160,516.473572 273.874939,516.832581 
	C274.061432,516.981689 274.004059,516.991028 274.027710,516.973938 
	C277.162903,527.118591 277.350739,537.225647 273.277893,547.646118 
	C273.071564,548.035339 273.007233,548.014465 273.037354,548.020935 
	C272.565338,548.412781 272.511078,549.002686 272.218323,549.798035 
	C272.065796,550.042725 272.001221,550.000000 272.034973,550.020508 
	C271.249084,550.708130 271.176239,551.848633 270.265411,552.814636 
	C270.071869,553.048584 270.036194,553.029968 270.047363,553.036255 
	C269.502441,553.450562 269.517761,554.114502 269.177734,554.957886 
    z"/>

      <!-- Aceituna Derecha -->
    <path fill="currentColor" opacity="1.000000" stroke="none" 
	d="
    M310.816467,534.923340 
	C310.531158,536.513000 309.293854,536.921936 308.094666,537.720215 
	C306.621918,537.654663 305.571655,538.153076 304.252014,538.829712 
	C303.994812,539.062012 303.994690,539.001343 304.023163,539.011841 
	C303.312225,539.718262 302.338318,539.387512 301.238617,539.831665 
	C300.987061,540.056030 301.004242,540.001343 301.022461,540.023438 
	C296.576721,540.677856 292.119049,541.159973 287.353912,539.272461 
	C286.955566,539.059265 286.985291,539.002502 286.974945,539.029907 
	C286.778534,538.785400 286.562531,538.539917 286.128265,538.162964 
	C285.939880,538.005249 285.995911,538.005249 285.977966,538.026794 
	C282.712189,526.436401 281.972931,514.938599 287.729431,503.343048 
	C287.937012,502.959167 287.998779,502.998779 287.968719,502.977234 
	C288.534546,502.482971 289.056580,501.933075 289.758209,501.163208 
	C289.936279,500.941589 289.987488,500.993469 289.965637,500.967804 
	C290.213318,500.779327 290.449890,500.577850 290.786438,500.145325 
	C290.919403,499.952972 290.910614,499.912598 290.930969,499.916138 
	C291.135101,499.778900 291.318817,499.638153 291.714905,499.222778 
	C291.927277,498.948151 291.936310,498.933044 291.944458,498.929810 
	C292.226349,498.764832 292.466278,498.562897 292.813416,498.131592 
	C292.954498,497.942413 293.002380,497.990387 292.975098,497.971954 
	C293.220154,497.772247 293.464844,497.559143 293.838867,497.127686 
	C293.995880,496.941132 293.996796,496.999603 293.970825,496.986115 
	C294.411743,496.581879 295.004028,496.512695 295.767334,496.140808 
	C295.977325,495.937927 295.983063,495.995850 295.974304,495.965759 
	C300.565430,493.864868 305.413147,494.337006 310.640289,494.752625 
	C311.045471,494.960419 310.999542,494.994049 310.998535,494.965637 
	C311.966064,495.935272 313.393036,495.966217 314.800873,496.796448 
	C315.072723,496.981812 315.008575,497.010864 314.994232,496.978699 
	C315.195953,497.195587 315.424194,497.432861 315.859161,497.810547 
	C316.053741,497.962708 316.002228,497.990631 316.019043,497.966553 
	C316.218323,498.212128 316.431702,498.454651 316.867493,498.819061 
	C317.059052,498.968140 317.007874,498.992126 317.019714,498.966492 
	C317.215668,499.209808 317.429871,499.452209 317.866333,499.816864 
	C318.058502,499.965698 318.008423,499.993683 318.021240,499.968018 
	C318.218323,500.212097 318.432678,500.455200 318.868042,500.823120 
	C319.058838,500.974548 319.006378,500.994293 319.016388,500.968109 
	C319.217865,501.211639 319.436462,501.457184 319.870209,501.838623 
	C320.058197,501.998749 320.000458,501.993408 320.017151,501.969666 
	C323.844788,508.984741 322.526337,516.124207 320.251831,523.661621 
	C320.051208,524.044678 320.006104,524.011780 320.033752,524.008057 
	C319.572540,524.407715 319.510834,525.002686 319.204529,525.803955 
	C319.045227,526.048462 319.004089,526.010925 319.031891,526.009949 
	C318.563599,526.412415 318.513275,527.018555 318.180267,527.813599 
	C318.011719,528.054382 317.992737,527.994568 318.024078,527.993286 
	C317.800629,528.201172 317.561279,528.426636 317.183960,528.861755 
	C317.030579,529.055054 317.008057,529.003723 317.032959,529.016479 
	C316.791870,529.213562 316.551666,529.426941 316.191467,529.861694 
	C316.045624,530.054077 316.005707,530.000000 316.031128,530.022461 
	C315.786133,530.220520 315.545197,530.429932 315.189941,530.865356 
	C315.046173,531.057556 315.003662,531.004883 315.030823,531.024963 
	C314.788605,531.217896 314.549316,531.425415 314.200256,531.860352 
	C314.060364,532.053101 314.009003,532.008972 314.031067,532.034546 
	C313.780426,532.227539 313.539856,532.432678 313.189545,532.866333 
	C313.047607,533.057190 312.999481,533.005615 313.027100,533.026611 
	C312.783173,533.223938 312.540924,533.434082 312.180328,533.868530 
	C312.032654,534.059143 311.996033,534.014709 312.022003,534.026611 
	C311.737732,534.301086 311.419983,534.554199 310.816467,534.923340 
    z"/>
  </g>
  <!-- Wordmark Dos lneas: Link / Aidly -->
  <g transform="translate(140,0)" fill="#556B2F">
    <text class="wm" x="0" y="72" font-size="72">Link</text>
    <text class="wm" x="0" y="152" font-size="72">Aidly</text>
  </g>
</svg>
