<svg width="220" height="376" viewBox="0 0 220 376" fill="none" xmlns="http://www.w3.org/2000/svg" role="img" aria-labelledby="logo-title logo-desc">
<title id="logo-title">LinkAidly icon rama solid</title>
<desc id="logo-desc">LinkAidly icon rama con hojas color arena.</desc>
<path d="M11.5931 86.4247C19.8745 89.1007 26.4559 94.2315 32.8326 100.185C33.1016 100.867 33.2935 101.242 33.811 101.783C34.052 101.994 33.9934 101.993 34.007 101.967C34.2115 102.207 34.4289 102.449 34.865 102.818C35.0572 102.968 35.0064 102.993 35.0187 102.967C35.2159 103.21 35.4303 103.452 35.8659 103.818C36.0575 103.967 36.0065 103.992 36.0194 103.967C36.2141 104.209 36.4263 104.449 36.8614 104.807C37.0539 104.952 37.0005 104.998 37.0242 104.972C37.2221 105.215 37.4306 105.456 37.8647 105.811C38.056 105.955 38 105.991 38.0228 105.966C38.2185 106.212 38.4264 106.452 38.8622 106.803C39.0549 106.945 38.9999 107 39.0274 106.972C39.223 107.216 39.4282 107.455 39.8625 107.802C40.0544 107.942 40.002 107.999 40.03 107.972C40.2239 108.216 40.428 108.456 40.8621 108.801C41.054 108.939 41.0083 108.991 41.0345 108.969C41.2268 109.219 41.431 109.459 41.8649 109.806C42.0562 109.947 42.0005 110 42.027 109.973C42.2244 110.217 42.4312 110.458 42.8652 110.81C43.0562 110.954 43.0049 111 43.0258 110.973C43.2239 111.217 43.4343 111.459 43.8681 111.821C44.0583 111.969 44.0094 111.997 44.0197 111.97C44.2172 112.212 44.4325 112.454 44.8663 112.823C45.0566 112.974 45.006 112.997 45.0158 112.971C45.2193 113.213 45.4386 113.458 45.8693 113.843C46.055 114.006 45.9935 114.001 46.0053 113.973C46.4141 114.408 46.4877 114.999 46.86 115.762C47.0653 115.97 47.0102 115.992 47.0118 115.963C47.1745 116.086 47.3357 116.24 47.7547 116.181C48.2949 116.319 48.5772 116.668 48.9225 117.235C49.1009 117.871 49.2979 118.248 49.8085 118.806C50.0404 119.03 49.9771 119.007 49.9917 118.977C50.4125 119.405 50.4881 119.997 50.8568 120.763C51.0608 120.973 51.0073 120.994 51.0244 120.971C51.2268 121.219 51.4419 121.465 51.8714 121.845C52.0562 122.006 51.9941 122.002 52.0048 121.973C52.4099 122.405 52.4888 122.991 52.8539 123.75C53.0601 123.955 53.0005 123.998 53.0307 123.975C53.2342 124.226 53.443 124.47 53.8736 124.836C54.0599 124.99 54.0034 124.996 54.0172 124.971C54.4178 125.412 54.4874 126.002 54.8584 126.76C55.0628 126.967 55.0088 126.998 55.0282 126.974C55.2288 127.221 55.4416 127.465 55.872 127.839C56.058 127.996 55.9997 128 56.0121 127.973C56.424 128.415 56.4862 129.016 56.8597 129.792C57.0555 130.012 56.9944 130 57.0087 129.973C57.4201 130.412 57.4867 131.009 57.8606 131.779C58.0607 131.994 58.0045 131.99 58.0235 131.969C58.4216 132.417 58.4868 133.005 58.8598 133.759C59.0644 133.964 59.0052 133.994 59.029 133.971C59.231 134.223 59.4428 134.468 59.8727 134.844C60.0572 135.004 59.9981 134.998 60.0128 134.972C61.2492 137.762 63.0848 140.319 63.8284 143.698C64.07 143.961 64.0042 143.995 64.0364 143.98C64.4422 144.437 64.4835 145.031 64.8656 145.784C65.063 145.995 65.0075 145.986 65.0305 145.97C69.9866 157.497 72.1387 169.776 74.4289 181.999C75.07 185.421 75.7582 188.823 76.743 192.564C77.4442 193.866 77.946 194.813 78.7462 195.896C81.5956 185.135 84.2425 174.265 87.7652 163.262C87.9591 162.951 88.0017 162.994 87.974 163.006C88.7497 162.333 88.3882 161.351 88.773 160.233C88.9595 159.953 88.9978 159.997 88.9695 160.002C89.7599 159.328 89.3821 158.339 89.782 157.225C89.9737 156.948 89.9998 157.003 89.9696 157.005C91.0307 155.721 91.2759 154.123 91.7599 152.253C91.9423 151.961 91.994 151.985 91.9657 151.988C92.4226 151.594 92.4908 151.01 92.7763 150.211C92.9299 149.967 92.9962 149.996 92.9635 149.979C94.5139 145.786 95.8251 141.517 97.3336 137.315C99.3703 131.642 98.3613 126.097 96.1789 120.324C95.9346 120.027 95.9859 120.003 95.9753 120.029C95.7766 119.784 95.5597 119.538 95.1302 119.153C94.9461 118.989 95.0096 118.994 95.0001 119.024C94.5805 118.591 94.5128 117.989 94.1412 117.21C93.9446 116.989 94.0045 117.003 93.9886 117.029C93.5763 116.585 93.5135 115.984 93.1396 115.208C92.9435 114.988 93.0025 115.006 92.9849 115.031C92.3277 114.248 92.1569 113.161 91.1694 112.22C90.935 112.02 90.9886 112.003 90.976 112.029C90.449 111.174 89.862 110.339 89.1451 109.231C88.9389 109.005 88.9981 108.998 88.9889 109.026C88.5822 108.59 88.5125 107.995 88.1404 107.229C87.9382 107.017 87.9952 107.013 87.9722 107.03C87.5728 106.578 87.5138 105.989 87.1381 105.237C86.9345 105.032 86.9889 105.003 86.9704 105.028C86.7715 104.779 86.5589 104.535 86.1275 104.161C85.941 104.004 85.9994 104.004 85.9857 104.03C85.5846 103.59 85.5119 103.002 85.1428 102.243C84.9379 102.037 84.987 102.007 84.9589 102.023C84.5674 101.57 84.5144 100.987 84.1379 100.249C83.9322 100.051 83.9921 100.011 83.9625 100.027C83.7603 99.7693 83.5524 99.5258 83.1249 99.1573C82.9409 99.0019 83.0002 99.0005 82.9882 99.0276C82.577 98.5862 82.5135 97.9853 82.1391 97.21C81.9422 96.9905 82.0034 96.998 81.9902 97.0258C81.5778 96.5866 81.5133 95.9875 81.1397 95.2147C80.9418 94.9972 80.9995 95.0054 80.982 95.0288C80.5738 94.5818 80.5139 93.9832 80.1377 93.2142C79.9396 92.9979 79.996 93.0089 79.9764 93.03C79.1449 91.9883 79.0054 90.6286 78.159 89.2441C77.9362 89.0055 77.9939 89.0016 77.9809 89.0274C77.575 88.5833 77.5138 87.9842 77.1377 87.2138C76.9394 86.9971 76.9954 87.007 76.9753 87.027C74.2825 79.4082 71.1667 71.9181 69.4692 63.9567C66.2223 48.7289 66.2558 33.474 68.9024 18.1778C69.2115 16.3909 69.655 14.614 69.7591 12.3627C69.973 11.9507 70.0082 12.0027 69.9784 12.0128C70.9099 9.98252 71.4665 7.84052 71.7675 5.26703C71.9678 4.95014 72.0058 4.99936 71.9767 5.01044C72.414 4.59992 72.4912 4.00946 72.7906 3.2005C72.95 2.95474 72.9708 3.00943 72.9493 2.98905C73.7301 0.963351 74.6681 -0.796965 77.698 0.753512C78.0768 0.968203 78.0122 1.00977 77.9914 0.97748C78.1998 1.19382 78.4353 1.43646 78.8622 1.84613C79.0485 2.01816 78.9798 2.01929 78.9811 1.98493C79.2067 2.19907 79.4387 2.44016 79.8648 2.84174C80.0522 3.0087 79.9861 3.01032 79.9901 2.97751C80.2055 3.20273 80.4331 3.44559 80.8665 3.836C81.0561 3.99866 80.9933 4.00708 80.9969 3.97565C81.2087 4.20499 81.4349 4.44901 81.867 4.84098C82.0547 5.00568 81.9892 5.01123 81.9915 4.97846C82.2115 5.19962 82.4406 5.443 82.8653 5.84558C83.0512 6.01395 82.983 6.02014 82.9822 5.98596C83.2102 6.20273 83.4457 6.44739 83.8751 6.85822C84.0626 7.03064 83.9777 7.00327 83.9913 6.96082C84.6544 7.72687 84.8342 8.81601 85.8235 9.76215C86.0613 9.96063 86.0214 10.0025 86.0286 9.97467C86.2238 10.2169 86.4401 10.4619 86.8708 10.8422C87.0568 11.0026 86.9964 10.9983 87.0093 10.9709C87.5519 11.8198 88.1366 12.6615 88.8527 13.779C89.0553 14.0102 88.9906 14.0013 89.0005 13.9702C89.407 14.4019 89.4889 14.9899 89.8566 15.7523C90.0641 15.9579 90.0023 15.9986 90.0298 15.9738C90.2315 16.2233 90.4409 16.4673 90.8731 16.8337C91.0606 16.9865 91.0061 17.0049 91.0126 16.9769C91.4972 17.4478 91.4492 18.2217 92.2448 18.8614C95.2305 22.1325 96.8479 25.8617 98.6809 29.8707C98.5877 30.6093 98.5085 31.0466 98.8182 31.7797C99.0354 32.0474 98.9565 32.0061 98.9771 31.9667C99.4076 32.3987 99.4885 33.0028 99.8539 33.798C100.048 34.0257 99.9891 33.9995 100.008 33.9736C100.783 35.7177 101.184 37.5885 101.826 39.7312C102.061 40.0045 102.005 39.9937 102.024 39.9724C109.878 62.8421 109.427 85.9602 103.938 109.215C103.1 112.764 102.287 116.316 102.397 120.368C105.249 122.018 105.49 119.446 106.418 118.233C107.516 116.798 108.286 115.113 109.385 113.275C110.231 112.712 110.5 112.145 110.814 111.213C111.01 110.951 111.014 111.019 110.98 111.018C111.197 110.802 111.434 110.575 111.813 110.141C111.966 109.947 111.99 109.997 111.963 109.989C112.436 109.587 112.488 108.988 112.8 108.193C112.959 107.949 112.997 107.991 112.969 107.993C113.434 107.589 113.487 106.983 113.823 106.188C113.994 105.948 114.012 106.009 113.98 106.01C114.198 105.801 114.435 105.575 114.808 105.142C114.959 104.949 114.997 104.991 114.969 104.983C115.445 104.581 115.486 103.976 115.814 103.187C115.979 102.946 116.002 103.001 115.972 103C116.201 102.796 116.441 102.574 116.814 102.138C116.966 101.944 117.001 101.988 116.973 101.989C117.543 101.506 117.478 100.729 117.886 99.7804C118.016 98.178 118.704 97.2295 119.705 96.1237C120.323 95.9814 120.573 95.8135 120.806 95.179C120.944 94.9447 120.992 94.9844 120.962 94.9776C122.178 92.991 123.206 90.921 123.747 88.2752C123.926 87.9737 123.978 87.9971 123.957 87.9812C124.436 87.585 124.489 87.0003 124.775 86.2103C124.926 85.9676 124.996 86 124.963 85.9828C125.78 85.3165 125.376 84.3324 125.766 83.2335C125.947 82.9548 125.992 82.99 125.963 82.9899C127.848 77.0633 130.97 71.5973 132.78 65.2382C132.984 64.922 133.024 65.0007 132.985 65.0208C133.268 64.7497 133.554 64.4258 133.904 63.7603C134.065 63.0694 134.125 62.6876 134.315 62.1558C136.271 61.0395 136.136 58.7519 137.724 57.2051C137.95 56.9383 137.989 56.9802 137.96 56.9805C138.948 56.0362 138.963 54.6137 139.78 53.2171C139.964 52.9473 139.993 52.9954 139.965 52.9915C140.844 52.3717 141.167 51.3657 141.805 50.1992C141.98 49.9446 142.014 50.0002 141.984 50.0119C142.277 49.74 142.559 49.4187 142.9 48.7575C148.811 38.3986 156.432 29.9811 166.149 23.0896C166.869 22.8902 167.248 22.7061 167.791 22.1864C168.004 21.9473 168.003 22.0092 167.973 21.9995C168.208 21.7869 168.453 21.5631 168.846 21.1335C169.013 20.9485 169.007 21.0121 168.976 21.002C169.406 20.5857 170 20.5121 170.767 20.1414C170.979 19.9381 170.975 19.9948 170.954 19.9755C171.543 19.4741 172.077 18.9123 172.815 18.1442C173.008 17.927 172.995 17.997 172.96 17.9905C173.985 17.1571 175.345 17.0043 176.732 16.1622C176.964 15.9305 177.002 15.9773 176.974 15.9659C177.219 15.7733 177.464 15.56 177.838 15.1281C177.995 14.9412 177.991 14.9981 177.968 14.9808C179.007 14.1448 180.369 14.0063 181.754 13.1571C181.992 12.9326 182.006 12.9934 181.974 12.9914C182.203 12.7788 182.45 12.5548 182.852 12.1306C183.021 11.946 183.003 12.0113 182.971 11.9993C183.993 11.1381 185.371 11.0099 186.769 10.1599C187.015 9.9411 187.019 10.0094 186.985 10.0093C187.418 9.55139 188.092 9.52875 188.811 8.96131C189.442 8.46967 189.89 8.23212 190.588 7.93247C198.852 6.00891 206.669 3.3505 214.779 1.88803C216.848 1.51493 219.734 0.0178242 219.25 4.68561C219.049 5.04041 218.996 5.00849 219.02 4.98871C218.255 5.66895 218.614 6.65747 218.207 7.77741C218.008 8.05142 217.978 7.99194 218.009 7.98004C217.58 8.40323 217.511 9.00632 217.179 9.81217C217.007 10.0541 216.983 9.99164 217.015 9.98288C216.583 10.4017 216.51 10.9991 216.195 11.8077C216.03 12.0526 216.007 11.9993 216.036 12.0016C215.066 12.9611 215.032 14.3742 214.227 15.7802C214.046 16.0519 214.005 16.0116 214.033 16.0056C213.575 16.4059 213.51 17.0006 213.205 17.8041C213.046 18.0492 213.005 18.0111 213.033 18.0078C212.226 18.6813 212.631 19.6858 212.201 20.7986C212.007 21.0763 211.986 21.0006 212.024 20.9904C211.81 21.2 211.568 21.4305 211.174 21.8633C211.014 22.0564 211 21.9961 211.031 21.9984C210.572 22.4071 210.511 23.0067 210.197 23.8097C210.035 24.0544 210.011 24.0011 210.04 24.0042C208.925 24.915 209.286 26.4988 208.259 27.8068C208.042 28.0571 208 28.0141 208.028 28.0033C207.572 28.4072 207.512 29.0117 207.181 29.8126C207.012 30.0545 206.994 29.9948 207.025 29.9941C206.802 30.1991 206.565 30.4222 206.196 30.857C206.047 31.0514 206.01 31.0024 206.037 31.0172C205.555 31.4183 205.513 32.0202 205.195 32.8106C205.034 33.0528 205.001 33.0043 205.03 33.0013C204.571 33.4075 204.512 34.0091 204.19 34.8107C204.025 35.0541 204 35.0012 204.029 35.0023C203.8 35.2033 203.56 35.4243 203.19 35.8597C203.04 36.0532 203.03 35.9971 203.052 36.0157C202.25 36.708 202.173 37.8562 201.254 38.8284C201.059 39.0644 201.007 39.0526 201.031 39.0472C200.786 39.22 200.545 39.4308 200.188 39.8662C200.042 40.0583 200.008 40.0123 200.036 40.0191C199.555 40.4174 199.514 41.0251 199.181 41.8154C199.014 42.056 199 41.9969 199.03 42.0008C196.94 44.3253 196.002 47.5397 193.208 49.7776C193.014 50.0572 192.99 49.9987 193.022 49.9941C192.802 50.209 192.56 50.4381 192.164 50.8666C192.001 51.0563 192.002 50.9937 192.032 51.003C191.269 51.9469 190.871 53.2706 189.263 53.8425C189.039 54.0641 189.004 54.0185 189.032 54.0253C188.794 54.2117 188.555 54.4225 188.202 54.8582C188.061 55.052 188 55.0024 188.031 55.0254C187.537 55.4294 187.517 56.0488 187.167 56.8317C187 57.0727 186.985 56.9947 187.024 56.9872C186.413 57.4796 185.578 57.7895 185.173 58.9647C184.569 59.7481 184.103 60.2511 183.417 60.8876C182.474 61.4131 181.696 61.7364 181.158 62.8175C180.975 63.0681 180.992 62.9818 181.035 62.9901C180.61 63.3931 180.023 63.4909 179.25 63.8527C179.042 64.0609 179.009 63.9994 179.031 64.0274C178.783 64.2245 178.543 64.4299 178.194 64.8622C178.053 65.0528 178.004 65.0012 178.03 65.0278C177.785 65.2226 177.545 65.4278 177.198 65.8619C177.059 66.0538 177.009 66.0049 177.03 66.0314C176.781 66.2268 176.541 66.4321 176.192 66.8643C176.05 67.0547 176.009 67.0124 176.038 67.0187C175.916 67.1704 175.765 67.3158 175.8 67.7144C175.647 68.2563 175.308 68.5451 174.758 68.9094C174.129 69.1022 173.751 69.2954 173.2 69.8116C172.98 70.047 172.987 69.9798 173.02 69.9865C172.801 70.2116 172.557 70.4395 172.159 70.8664C171.993 71.0541 172.001 70.993 172.029 71.0062C171.592 71.4141 171.001 71.4879 170.238 71.8595C170.03 72.0646 169.995 72.0209 170.022 72.0272C169.708 72.2872 169.424 72.5944 169.095 73.25C167.514 75.6159 165.405 76.8337 162.852 77.9301C162.128 78.1034 161.754 78.2991 161.203 78.813C160.986 79.0501 161.004 78.9905 161.029 79.0074C160.589 79.4169 159.997 79.4875 159.234 79.8591C159.024 80.0624 159.01 80.0075 159.034 80.0234C158.785 80.2219 158.54 80.4359 158.17 80.871C158.016 81.0607 158.003 81.0065 158.027 81.0198C157.582 81.4266 156.982 81.4859 156.21 81.8615C155.992 82.0582 155.994 81.9934 156.026 82.0005C155.793 82.2116 155.548 82.4362 155.154 82.8668C154.987 83.0523 154.992 82.988 155.023 82.9972C154.592 83.4178 153.992 83.4872 153.214 83.859C152.995 84.0573 153.007 83.9991 153.03 84.0168C152.585 84.4221 151.99 84.4865 151.226 84.8629C151.015 85.0652 151.003 85.0095 151.029 85.0205C150.785 85.2216 150.539 85.4394 150.154 85.8698C149.991 86.0547 149.992 85.9911 150.023 85.9991C149.591 86.4191 148.99 86.4871 148.21 86.8576C147.989 87.0538 148.004 86.9948 148.03 87.0122C147.584 87.4239 146.985 87.4863 146.212 87.8611C145.993 88.0585 146.006 88.0005 146.029 88.0186C144.398 89.3142 142.394 89.837 140.25 90.8306C139.998 91.0614 140.001 91.0023 140.027 91.0163C137.508 92.4038 134.764 93.3818 132.138 95.2434C131.815 95.7305 131.628 95.8505 131.253 95.9752C130.618 96.4354 130.005 96.483 129.217 96.8552C128.995 97.0556 128.999 96.9928 129.029 97.0031C128.793 97.2117 128.548 97.4336 128.167 97.8693C128.008 98.0597 127.992 97.9961 128.025 97.9937C127.573 98.4063 127.512 99.011 127.181 99.8133C127.012 100.056 126.971 99.9995 127 99.9798C126.899 100.106 126.769 100.252 126.78 100.656C126.573 101.48 126.224 102.046 125.708 102.798C125.129 103.098 124.76 103.292 124.231 103.808C124.028 104.051 124.03 103.995 124.049 104.015C123.254 104.705 123.176 105.842 122.27 106.811C122.077 107.045 122.018 107.009 122.043 107.032C121.241 107.71 121.178 108.852 120.27 109.812C120.078 110.046 120.029 110.009 120.048 110.029C119.548 110.423 119.514 111.023 119.202 111.808C119.046 112.051 119.003 112.012 119.031 112.018C118.795 112.21 118.556 112.423 118.2 112.858C118.057 113.051 118.02 112.996 118.044 113.022C117.03 113.974 117.044 115.407 116.209 116.787C116.022 117.054 115.994 116.999 116.025 116.995C115.803 117.198 115.567 117.421 115.199 117.856C115.052 118.051 115.008 118.003 115.037 118.019C114.556 118.418 114.513 119.018 114.201 119.809C114.043 120.052 114.005 120.009 114.034 120.007C113.562 120.412 113.514 121.025 113.173 121.824C113.004 122.068 112.973 121.999 113.007 121.983C112.58 122.403 112.511 123.008 112.176 123.816C112.005 124.059 111.976 123.996 112.008 123.983C111.581 124.403 111.51 125.004 111.186 125.81C111.018 126.053 110.991 125.996 111.022 125.99C110.576 126.405 110.512 127.009 110.18 127.812C110.009 128.054 109.982 127.993 110.014 127.983C109.577 128.405 109.512 129.013 109.17 129.816C108.995 130.057 108.986 129.985 109.022 129.981C108.81 130.199 108.569 130.429 108.178 130.862C108.02 131.056 108.001 130.999 108.031 131.001C107.57 131.409 107.511 132.008 107.196 132.809C107.034 133.053 106.999 133.004 107.028 132.997C106.236 133.675 106.624 134.674 106.202 135.789C106.005 136.064 105.971 135.991 106.008 135.974C105.588 136.397 105.51 137 105.178 137.81C105.005 138.053 104.994 137.989 105.026 137.99C103.844 140.008 102.781 142.087 102.232 144.75C102.042 145.048 102.002 145.006 102.03 144.999C101.579 145.404 101.51 145.996 101.207 146.802C101.048 147.047 101.01 147.004 101.038 147.01C99.5275 150.7 98.6909 154.635 97.4228 159.115C101.654 157.077 103.889 152.765 107.427 149.186C108.022 148.826 108.342 148.627 108.818 148.161C109.007 147.948 109.004 148.012 108.973 148.004C109.2 147.797 109.439 147.577 109.805 147.143C109.954 146.95 109.993 146.996 109.966 146.982C110.456 146.576 110.483 145.956 110.832 145.164C110.998 144.92 111.01 145.005 110.968 145.011C111.565 144.558 112.33 144.237 112.827 143.19C113 142.945 113.013 143.009 112.98 143.01C113.201 142.797 113.443 142.568 113.831 142.135C113.991 141.944 114.003 142.003 113.973 141.998C114.205 141.791 114.447 141.568 114.828 141.134C114.985 140.944 114.997 141.001 114.969 140.992C115.207 140.788 115.451 140.567 115.829 140.132C115.986 139.941 115.998 139.999 115.969 139.993C116.204 139.792 116.445 139.574 116.813 139.138C116.964 138.945 117.001 138.99 116.975 138.977C117.217 138.776 117.462 138.559 117.841 138.129C118.001 137.944 118.021 138.008 117.988 138.014C118.267 137.745 118.545 137.438 118.898 136.809C119.462 136.074 119.913 135.629 120.577 135.072C121.316 134.626 121.917 134.508 122.73 134.161C122.945 133.944 122.988 133.973 122.969 133.952C123.224 133.767 123.464 133.564 123.812 133.132C123.953 132.943 124.001 132.994 123.973 132.973C124.218 132.775 124.46 132.564 124.823 132.13C124.972 131.94 125.003 131.986 124.976 131.981C125.215 131.779 125.459 131.559 125.849 131.132C126.015 130.949 126.006 131.013 125.976 131.002C126.404 130.591 126.99 130.511 127.751 130.146C127.956 129.94 127.974 129.991 127.96 129.964C128.551 129.466 129.077 128.913 129.802 128.155C129.992 127.94 130.001 127.999 129.973 127.99C130.407 127.587 130.995 127.512 131.755 127.145C131.961 126.939 132 126.997 131.976 126.972C132.225 126.767 132.469 126.555 132.847 126.128C133.008 125.945 133.003 126.007 132.974 125.996C133.746 125.321 134.846 125.156 135.8 124.17C136.007 123.939 136.003 124.002 135.973 123.992C136.992 123.142 138.358 123.009 139.739 122.16C139.972 121.931 140.001 121.979 139.974 121.972C140.217 121.775 140.464 121.558 140.85 121.127C141.014 120.942 140.998 121.015 140.962 121.007C141.666 120.29 142.645 120.605 143.755 120.17C144.007 119.942 143.988 119.997 143.969 119.975C146.066 118.954 148.094 117.727 150.738 117.17C151.001 116.934 150.995 116.992 150.971 116.976C152.296 115.968 153.763 115.32 155.742 115.171C156.004 114.937 155.992 114.994 155.972 114.973C170.079 109.317 184.846 107.969 199.852 108.72C205.719 109.014 211.614 109.458 217.499 111.073C217.676 111.668 217.761 111.821 217.949 112.216C217.915 112.86 217.718 113.228 217.247 113.799C217.044 114.042 217.026 113.997 217.042 114.018C216.787 114.219 216.545 114.431 216.184 114.868C216.037 115.06 216.005 115.011 216.031 115.023C215.787 115.219 215.544 115.433 215.177 115.869C215.027 116.06 215.007 116.007 215.034 116.017C214.791 116.214 214.548 116.431 214.179 116.868C214.027 117.06 214.006 117.008 214.033 117.018C213.79 117.216 213.545 117.433 213.17 117.87C213.015 118.06 212.998 118.004 213.027 118.008C212.792 118.212 212.549 118.434 212.167 118.868C212.009 119.057 212.001 118.997 212.03 119.004C211.795 119.209 211.552 119.43 211.175 119.867C211.02 120.059 211.004 120.004 211.031 120.011C210.794 120.211 210.552 120.428 210.182 120.864C210.031 121.056 210.012 121.003 210.036 121.018C209.79 121.216 209.547 121.43 209.182 121.867C209.034 122.06 209.007 122.01 209.033 122.021C208.789 122.217 208.546 122.431 208.18 122.868C208.03 123.059 208.007 123.008 208.033 123.019C207.789 123.217 207.545 123.433 207.173 123.869C207.02 124.06 207.004 124.005 207.032 124.013C206.793 124.212 206.55 124.43 206.179 124.866C206.027 125.059 206.006 125.007 206.032 125.017C205.79 125.216 205.546 125.433 205.173 125.868C205.018 126.058 205.002 126.003 205.029 126.011C204.791 126.214 204.547 126.434 204.168 126.868C204.011 127.058 203.998 126.999 204.028 127.005C203.793 127.212 203.549 127.434 203.165 127.868C203.004 128.057 202.984 127.996 203.016 127.992C202.736 128.252 202.464 128.552 202.115 129.169C201.869 129.647 201.695 129.794 201.32 129.957C200.655 130.403 200.04 130.487 199.226 130.851C199 131.058 198.991 130.996 199.022 131C198.719 131.273 198.431 131.585 198.094 132.246C197.852 134.301 196.682 134.892 194.845 135.051C194.121 135.12 193.745 135.303 193.201 135.816C192.986 136.052 193.001 135.991 193.029 136.006C192.59 136.417 191.996 136.487 191.23 136.859C191.018 137.062 191.021 137.006 191.04 137.026C190.396 137.457 189.657 137.783 189.166 138.82C188.997 139.063 188.994 138.997 189.026 139.001C188.596 139.412 188 139.488 187.227 139.859C187.013 140.062 187.026 140.005 187.047 140.026C184.968 142.272 182.243 143.461 179.234 144.836C178.975 145.067 178.979 144.988 179.019 144.99C178.597 145.415 177.992 145.488 177.198 145.851C176.969 146.042 176.989 145.976 177.021 145.989C176.592 146.42 175.987 146.487 175.202 146.856C174.976 147.049 174.998 146.989 175.026 147.005C174.314 147.716 173.343 147.39 172.249 147.834C172.003 148.064 172.007 148.007 172.028 148.026C171.577 148.431 170.978 148.485 170.21 148.863C169.993 149.06 170.001 149 170.028 149.015C169.583 149.426 168.981 149.486 168.203 149.859C167.98 150.053 168.002 149.993 168.028 150.011C167.449 150.616 166.554 150.358 166.025 151.029C165.386 151.526 164.612 151.765 163.529 152.016C157.647 153.436 152.256 155.517 146.272 156.813C145.959 157.052 146.003 156.977 146.04 156.999C140.555 157.542 135.276 159.635 129.326 159.808C128.991 160.061 129.006 160.007 129.023 160.03C121.239 161.548 113.371 162.69 105.308 164.805C104.973 165.048 104.983 164.98 105.017 164.987C104.592 165.421 103.985 165.487 103.193 165.851C102.963 166.039 102.983 165.972 103.017 165.982C102.594 166.419 101.989 166.487 101.199 166.853C100.972 167.044 100.997 166.982 101.027 166.998C100.592 167.415 99.9984 167.488 99.2319 167.86C99.0211 168.063 99.0061 168.009 99.031 168.022C98.7859 168.22 98.5422 168.435 98.1708 168.869C98.0168 169.059 98.0009 169.003 98.029 169.01C97.7907 169.214 97.5458 169.436 97.161 169.869C96.9997 170.057 96.9899 169.994 97.0222 169.995C96.8005 170.213 96.5564 170.44 96.1576 170.866C95.9916 171.054 95.9874 170.987 96.0206 170.99C95.8012 171.21 95.5582 171.439 95.1597 171.867C94.9946 172.055 94.9901 171.989 95.0229 171.992C94.7978 172.205 94.5557 172.431 94.1701 172.866C94.011 173.058 94.0011 172.998 94.0306 173.005C93.7993 173.204 93.5607 173.421 93.1988 173.857C93.0535 174.051 93.0224 173.995 93.0474 174.016C92.5625 174.414 92.5113 175.004 92.2202 175.798C92.0689 176.042 92.007 176.023 92.0363 176.027C91.2219 176.687 91.625 177.674 91.2248 178.774C91.0387 179.05 91.0072 179.003 91.0357 179.003C85.5154 190.707 84.3832 203.23 84.5483 215.908C84.7171 228.87 86.8096 241.624 89.8062 254.644C90.0572 255.016 89.9992 255.001 90.0174 254.977C90.6636 257.547 90.8476 260.236 91.8901 263.145C92.0594 263.513 92.002 263.498 92.021 263.475C93.4966 269.548 96.1229 275.283 97.8175 281.685C98.0649 281.989 98.0085 281.991 98.0282 281.97C98.4295 282.423 98.4853 283.02 98.8633 283.783C99.0619 283.997 99.0061 283.992 99.0267 283.973C99.707 284.702 99.3899 285.665 99.8361 286.755C100.064 287 100.007 286.998 100.024 286.975C100.43 287.422 100.485 288.02 100.862 288.788C101.058 289.005 100.999 288.993 101.016 288.968C101.231 289.236 101.389 289.549 101.767 289.925C103.47 291.503 103.53 294.926 105.717 294.816C108.33 294.685 108.226 291.357 109.065 289.308C112.128 281.821 114.718 274.114 119.723 267.197C120.129 267.098 120.303 267.247 120.728 267.162C120.979 266.928 120.981 266.986 120.956 266.972C121.984 265.96 121.989 264.461 122.819 262.979C122.993 262.478 123.08 262.316 123.325 262.098C123.853 261.91 124.224 261.72 124.755 261.203C124.956 260.959 124.971 260.977 124.96 260.962C125.218 260.775 125.458 260.568 125.811 260.136C125.955 259.945 125.995 259.985 125.967 259.982C126.086 259.836 126.234 259.693 126.204 259.299C127.645 257.439 129.265 255.831 131.167 254.113C131.865 253.896 132.24 253.711 132.777 253.192C132.984 252.951 132.989 253.005 132.968 252.988C133.215 252.779 133.459 252.56 133.843 252.13C134.005 251.945 133.999 252.005 133.971 251.992C134.406 251.59 134.99 251.511 135.745 251.144C135.947 250.936 135.973 250.972 135.966 250.957C136.3 250.697 136.585 250.399 136.902 249.748C138.26 247.824 140.053 246.966 142.148 246.054C144.516 245.31 146.411 244.214 148.704 243.173C148.975 242.932 149 242.986 148.976 242.968C149.423 242.571 150.015 242.514 150.772 242.137C150.981 241.936 150.973 241.994 150.965 241.965C162.57 236.745 174.68 234.342 187.427 235.235C189.573 235.385 191.814 234.878 191.263 238.619C191.068 239.038 191.014 239.038 191.036 239.023C190.798 239.206 190.558 239.426 190.188 239.861C190.038 240.054 190.023 239.999 190.046 240.015C189.039 240.967 189.042 242.399 188.207 243.787C188.02 244.055 187.991 244 188.021 243.993C187.8 244.201 187.561 244.429 187.18 244.863C187.025 245.056 187.016 244.999 187.043 245.01C186.258 245.71 186.171 246.858 185.241 247.832C185.042 248.067 185.001 248.028 185.029 248.024C184.791 248.214 184.548 248.432 184.175 248.867C184.021 249.058 184.001 249.001 184.031 249.003C183.568 249.41 183.512 250.013 183.189 250.812C183.024 251.055 182.998 251.002 183.028 251.002C182.799 251.204 182.559 251.426 182.187 251.861C182.036 252.054 182.008 252.003 182.032 252.019C181.788 252.217 181.547 252.43 181.185 252.865C181.038 253.057 181.01 253.007 181.037 253.015C180.557 253.416 180.514 254.025 180.178 254.815C180.009 255.055 179.998 254.994 180.029 254.997C179.479 255.508 178.944 256.062 178.23 256.843C178.047 257.066 178 257.037 178.027 257.033C177.718 257.283 177.43 257.583 177.117 258.241C173.77 263.864 168.707 267.204 163.39 270.595C162.536 271.658 161.542 272.165 160.249 272.835C160.003 273.064 160.01 273.002 160.039 273.014C158.502 274.671 156.642 275.858 154.259 276.838C154.019 277.071 153.998 277.015 154.027 277.017C153.788 277.218 153.541 277.441 153.147 277.872C152.98 278.058 152.996 277.991 153.029 278.002C152.007 278.861 150.631 278.99 149.233 279.839C148.987 280.058 148.99 279.993 149.022 280C148.587 280.426 147.975 280.486 147.184 280.862C146.953 281.052 146.973 280.966 147.016 280.976C146.597 281.417 145.985 281.487 145.185 281.858C144.952 282.048 144.984 281.968 145.024 281.984C144.328 282.718 143.345 282.39 142.231 282.826C141.973 283.046 142.001 282.988 142.027 283.008C141.311 283.716 140.338 283.388 139.239 283.833C138.988 284.058 139.002 283.998 139.028 284.015C138.582 284.427 137.979 284.486 137.2 284.858C136.977 285.051 136.997 284.989 137.025 285.005C136.315 285.717 135.343 285.39 134.246 285.832C133.997 286.059 134.009 286.004 134.026 286.026C133.296 286.707 132.336 286.39 131.248 286.836C131.004 287.064 131.005 287.008 131.026 287.027C130.573 287.436 129.968 287.484 129.191 287.861C128.966 288.051 128.985 287.982 129.02 287.992C128.299 288.789 127.115 288.237 126.136 289.206C125.462 289.665 124.964 289.799 124.208 289.954C123.511 289.489 122.983 289.466 122.195 289.866C121.981 290.054 122 289.995 122.026 290.011C121.583 290.426 120.982 290.486 120.207 290.86C119.986 291.055 119.998 290.994 120.026 291.009C119.586 291.423 118.985 291.487 118.209 291.859C117.989 292.055 117.997 291.992 118.027 292.002C117.4 292.469 116.624 292.798 116.176 293.901C115.657 294.667 115.292 295.17 114.738 295.814C113.846 296.233 113.49 296.768 113.193 297.775C112.987 298.048 112.973 297.983 113.007 297.98C112.576 298.406 112.511 299.009 112.177 299.808C112.003 300.047 111.967 299.992 111.997 299.978C111.643 300.385 111.462 300.868 111.74 301.652C111.924 302.685 111.94 303.507 111.927 304.74C111.466 305.59 111.47 306.088 111.867 306.827C112.034 307.037 111.973 307.006 111.99 306.976C112.421 307.41 112.487 308.014 112.854 308.8C113.045 309.026 112.982 309.005 112.997 308.976C113.421 309.411 113.487 310.013 113.857 310.795C114.052 311.018 113.99 311.002 114.004 310.974C114.422 311.412 114.486 312.014 114.86 312.791C115.056 313.011 114.996 313.001 115.01 312.974C115.423 313.414 115.486 314.013 115.86 314.786C116.058 315.003 115.995 315.003 116.004 314.973C116.212 315.208 116.435 315.452 116.868 315.838C117.056 316 116.997 315.996 117.011 315.97C117.418 316.411 117.487 317.004 117.861 317.767C118.064 317.976 118.011 317.996 118.025 317.971C118.222 318.216 118.437 318.459 118.87 318.831C119.058 318.986 119.002 318.99 119.02 318.968C119.42 319.415 119.487 320.005 119.861 320.762C120.066 320.968 120.028 321.008 120.04 320.986C120.313 321.273 120.563 321.591 120.926 322.194C125.908 326.107 128.885 331.394 132.901 336.151C133.104 336.87 133.297 337.247 133.812 337.799C134.048 338.017 133.981 338.026 133.979 337.992C134.244 338.256 134.537 338.523 135.13 338.884C135.603 339.113 135.764 339.262 135.957 339.604C136.363 340.3 136.491 340.916 136.845 341.758C137.06 341.986 137.001 341.995 137.009 341.966C137.417 342.447 138.037 342.485 138.834 342.834C139.078 343.003 138.992 343.013 138.987 342.97C139.447 343.57 139.773 344.341 140.828 344.844C141.075 345.018 140.983 345.019 140.98 344.973C141.475 345.586 141.79 346.422 142.972 346.832C143.746 347.402 144.238 347.831 144.865 348.466C145.165 349.02 145.373 349.339 145.836 349.826C146.046 350.022 145.978 350.013 145.985 349.98C146.21 350.199 146.439 350.442 146.866 350.841C147.055 351.006 146.989 351.011 146.991 350.978C147.211 351.199 147.439 351.442 147.867 351.841C148.055 352.006 147.991 351.999 148.002 351.969C148.825 352.863 149.715 353.712 150.83 354.767C151.065 354.966 151.018 354.999 151.017 354.97C151.211 355.207 151.431 355.45 151.867 355.825C152.059 355.979 152.001 355.999 152.003 355.969C152.412 356.439 153.028 356.486 153.827 356.833C154.07 357.004 153.991 357.024 153.98 356.985C154.2 357.193 154.435 357.436 154.862 357.846C155.049 358.017 154.98 358.026 154.976 357.992C155.261 358.277 155.581 358.563 156.242 358.913C159.896 360.898 162.787 363.369 165.765 366.227C166.24 367.172 166.79 367.508 167.786 367.815C168.058 368.021 167.986 367.99 168.002 367.953C168.841 369.273 169.388 370.719 169.274 372.667C169.092 373.013 169.118 373.064 169.089 373.065C168.493 373.562 168.223 374.358 167.257 374.858C167.056 375.062 167.045 375.075 167.037 375.078C166.305 375.582 165.489 375.501 164.319 375.26C163.961 375.067 163.983 375.02 163.974 375.039C163.785 374.79 163.573 374.55 163.137 374.194C162.944 374.05 162.991 374.009 162.979 374.038C162.583 373.557 161.985 373.513 161.192 373.204C160.948 373.047 160.981 373.002 160.987 373.03C160.558 372.513 159.883 372.516 159.015 372.172C158.732 372.029 158.326 372.004 158.125 371.97C157.773 371.827 157.622 371.719 157.25 371.443C152.955 368.799 149.783 365.278 146.182 361.807C145.902 361.131 145.704 360.756 145.189 360.207C144.95 359.991 145.014 359.999 145.003 360.029C144.792 359.796 144.571 359.554 144.134 359.178C143.942 359.024 143.996 359.001 143.995 359.03C143.585 358.562 142.981 358.51 142.181 358.191C141.675 357.878 141.44 357.696 141.114 357.285C140.573 356.628 140.516 356.018 140.144 355.233C139.938 355.016 139.994 355.009 139.98 355.034C139.783 354.789 139.569 354.546 139.132 354.181C138.94 354.031 138.991 354.004 138.989 354.033C138.566 353.526 137.913 353.515 137.069 353.176C136.556 352.92 136.348 352.767 136.077 352.397C135.631 351.692 135.509 351.076 135.153 350.239C134.938 350.011 134.996 350.007 134.983 350.033C134.785 349.791 134.569 349.548 134.132 349.18C133.94 349.03 133.992 349.008 133.981 349.034C133.787 348.792 133.573 348.551 133.137 348.19C132.944 348.044 132.999 348.009 132.977 348.034C132.781 347.788 132.572 347.547 132.137 347.193C131.944 347.051 131.998 347 131.974 347.027C131.775 346.782 131.566 346.54 131.132 346.182C130.941 346.035 130.991 346.004 130.993 346.034C130.84 345.913 130.685 345.762 130.269 345.804C129.726 345.654 129.444 345.313 129.093 344.761C128.903 344.13 128.704 343.754 128.191 343.198C127.956 342.975 128.024 342.987 128.017 343.02C127.789 342.8 127.559 342.557 127.136 342.152C126.952 341.982 127.016 341.994 127.005 342.026C125.175 339.85 122.591 338.3 121.176 335.273C120.943 334.998 121.005 334.995 120.997 335.025C118.476 333.021 117.284 330.022 115.203 327.241C114.939 327 115.003 326.989 115.003 327.021C114.605 326.612 114.182 326.194 113.609 325.511C108.227 318.281 103.939 310.715 99.4042 302.885C99.194 302.599 99.1495 302.228 99.1346 302.042C99.1916 301.691 99.2635 301.527 99.1544 301.162C98.9733 300.962 99.0284 301 99.0065 301.026C97.5512 299.943 97.7931 297.631 95.7078 296.589C94.3755 293.883 92.6325 291.962 90.171 290.225C89.9247 290.005 90.0011 289.983 90.0121 290.021C90.0232 290.059 89.6518 289.746 89.4327 289.641C89.2137 289.536 88.7533 289.379 88.5345 289.271C88.3157 289.164 87.8611 288.985 87.6327 288.896C87.4044 288.807 86.9641 288.587 86.7513 288.462C86.5385 288.336 86.1134 288.078 85.9032 287.942C85.5662 287.696 85.4393 287.586 85.1245 287.304C84.7893 287.047 84.6421 286.961 84.2694 286.748C83.8919 286.538 83.7398 286.454 83.3594 286.24C82.9676 286.042 82.8041 285.975 82.3994 285.792C81.9966 285.595 81.8349 285.516 81.4336 285.306C80.8409 285.069 80.4801 285.003 79.8374 284.91C79.3889 284.769 79.2159 284.69 78.7897 284.473C78.1868 284.155 77.8151 284.048 77.1224 283.963C76.6286 283.845 76.4379 283.766 75.9932 283.508C74.6707 282.162 73.0436 282.654 71.472 281.969C70.9335 281.879 70.724 281.823 70.2158 281.628C68.7285 279.808 66.9199 279.978 64.8815 279.745C58.1698 275.633 50.6089 273.911 44.2747 269.062C43.7342 268.823 43.5222 268.722 42.9916 268.474C42.0563 268.004 41.5438 267.533 40.6817 266.967C40.1776 266.698 39.9754 266.59 39.4999 266.277C38.1191 265.092 37.1729 263.919 35.5402 263.118C35.0613 262.939 34.8722 262.862 34.4159 262.643C33.9796 262.392 33.8107 262.285 33.4112 261.991C33.0164 261.698 32.8519 261.591 32.4431 261.325C32.0233 261.086 31.8478 261.005 31.4128 260.8C30.7981 260.519 30.5004 260.289 30.1435 259.724C30.0266 259.463 30.0123 259.181 30 259.04C26.919 255.757 23.7127 252.754 20.4008 249.309C16.021 244.412 12.22 239.568 9.09342 233.856C8.89838 233.127 8.70244 232.752 8.19248 232.196C7.96115 231.972 8.02487 231.991 8.01139 232.021C7.48398 231.651 7.31212 231.098 7.12052 230.231C6.94582 229.987 7.00409 230.002 6.98612 230.026C4.46959 226.207 3.36026 221.732 1.3904 217.642C0.673633 216.154 -0.171811 214.249 1.02178 212.581C2.4616 210.569 4.29853 212.119 6.00963 212.262C12.3326 212.791 18.2634 214.932 24.6839 216.75C25.0454 216.949 25.0106 216.995 25.0009 216.968C25.6724 217.762 26.6672 217.379 27.7795 217.793C28.0535 217.991 27.993 218.021 27.9808 217.99C28.4052 218.424 29.0169 218.488 29.8271 218.829C30.0725 219 29.9979 219.043 29.9765 219.006C30.2976 219.307 30.7093 219.472 31.5096 219.328C33.4125 219.956 34.9963 220.724 36.8411 221.691C38.09 223.573 39.9692 223.802 41.7794 224.777C42.0533 224.964 42.0074 224.999 42.0038 224.971C42.203 225.2 42.4257 225.44 42.8618 225.814C43.0554 225.965 43.0055 225.991 43.0122 225.964C43.4145 226.44 44.0189 226.487 44.8131 226.812C45.0552 226.977 45.0026 227.017 44.9867 226.988C45.1127 227.092 45.2547 227.225 45.6554 227.223C46.7597 227.966 47.6054 228.844 48.7271 229.86C49.2099 230.245 49.4367 230.471 49.8706 230.828C50.0576 230.979 50.0011 230.999 50.0026 230.969C50.4106 231.435 51.0191 231.487 51.8155 231.825C52.056 231.996 51.9936 232.017 51.9878 231.985C52.2026 232.202 52.4335 232.441 52.8653 232.832C53.0559 232.993 52.9955 233.002 53.0011 232.972C53.2088 233.205 53.432 233.448 53.8673 233.83C54.0581 233.988 53.9974 234.008 53.9949 233.976C54.4197 234.449 55.0478 234.489 55.8803 234.813C57.6546 236.389 59.1723 237.802 60.8616 239.474C61.3482 240.286 61.4939 240.895 61.838 241.734C62.059 241.957 61.9998 241.983 62.0288 241.964C62.2244 242.217 62.4285 242.456 62.8616 242.801C63.0531 242.94 63.0074 242.995 63.0336 242.97C63.2248 243.217 63.4283 243.456 63.862 243.801C64.0538 243.938 64.0097 243.99 64.0355 243.968C64.2257 244.218 64.4289 244.457 64.8624 244.801C65.054 244.939 65.0601 244.953 65.0634 244.959C65.3179 245.276 65.5621 245.591 65.9261 246.182C69.6594 247.678 70.9945 251.012 72.963 254.132C73.5337 255.463 74.1934 256.401 74.8334 257.719C75.0691 257.966 75.0247 258.003 75.0328 257.975C75.2267 258.219 75.4419 258.465 75.8707 258.847C76.0546 259.009 75.9917 259.005 76.0016 258.975C76.4205 259.41 76.4866 260.013 76.8594 260.793C77.0554 261.015 76.9931 261.002 77.0066 260.974C77.4194 261.411 77.4869 262.009 77.8602 262.78C78.0601 262.996 78.0048 262.987 78.0266 262.969C78.8562 264.017 78.9944 265.378 79.8411 266.766C80.0598 267.009 79.9921 267.013 79.9928 266.98C80.2115 267.2 80.4407 267.443 80.864 267.848C81.0486 268.018 80.9812 268.018 80.9839 267.985C81.4962 268.435 81.452 269.217 82.2351 269.875C83.6655 271.662 84.6918 273.376 85.956 274.893C87.0257 276.176 87.1716 275.141 87.1785 273.996C87.9886 271.878 86.3712 270.311 86.1674 268.251C85.9356 267.997 85.9918 268.003 85.9724 268.024C81.5277 251.849 79.2963 235.276 77.5234 218.629C77.1481 215.105 76.0403 211.853 74.1912 208.386C73.9325 208.043 73.9742 207.994 73.9621 208.023C73.7702 207.778 73.5578 207.533 73.1267 207.159C72.9407 207.002 73.0005 207 72.9893 207.028C72.5805 206.589 72.5129 205.991 72.1396 205.22C71.9397 205.005 72 205.002 71.9899 205.031C71.7867 204.792 71.5679 204.548 71.1326 204.172C70.9421 204.017 70.9962 203.992 70.9963 204.022C70.7458 203.744 70.462 203.472 69.8676 203.123C67.5273 200.981 65.4594 198.955 63.2009 196.689C62.8726 196.062 62.6702 195.712 62.1776 195.193C61.9521 194.986 62.017 194.995 62.0074 195.026C61.7967 194.8 61.5755 194.561 61.142 194.19C60.9496 194.039 61.0053 194.027 60.9836 194.046C60.2596 193.236 59.088 193.153 58.0808 192.221C57.5971 191.958 57.3929 191.835 57.1097 191.519C56.8486 191.012 56.6433 190.681 56.1687 190.184C55.9519 189.985 56.019 189.981 56.0173 190.015C55.7347 189.721 55.4167 189.436 54.7563 189.088C53.7213 188.484 52.9917 187.983 52.1211 187.245C52.1179 186.84 52.2557 186.672 52.1625 186.272C51.9314 186.041 51.9997 186.009 51.9669 186.03C51.7722 185.78 51.571 185.543 51.139 185.204C50.9477 185.068 50.9634 185.04 50.9484 185.045C50.7712 184.779 50.5694 184.541 50.1371 184.2C49.9459 184.063 49.9863 184.014 49.9616 184.034C49.7735 183.782 49.5706 183.542 49.1366 183.199C48.9448 183.061 48.9924 183.009 48.9655 183.031C48.772 182.78 48.567 182.539 48.1328 182.189C47.9417 182.047 47.9951 182.002 47.9739 182.03C47.7792 181.786 47.5708 181.545 47.1354 181.192C46.9432 181.049 46.9981 181.002 46.9745 181.03C46.7787 180.786 46.571 180.545 46.1358 180.193C45.9437 180.051 46.0009 180.038 45.9732 180.053C43.9868 178.83 42.065 177.557 41.0909 174.883C35.2198 171.217 32.1939 165.641 28.9847 159.888C28.7945 158.888 28.4904 158.254 28.1748 157.298C27.9408 157.04 27.9993 157.013 27.9701 157.031C27.7682 156.776 27.5599 156.534 27.1282 156.171C26.9403 156.021 26.9955 156.009 26.9763 156.03C26.5769 155.582 26.5132 154.993 26.1397 154.238C25.936 154.031 25.9881 154 25.9707 154.025C25.7697 153.778 25.5558 153.533 25.1287 153.152C24.9459 152.989 25.0097 152.993 25.001 153.023C24.5818 152.592 24.5127 151.992 24.1411 151.215C23.9429 150.996 24.0009 151.003 23.9841 151.027C23.5737 150.582 23.5139 149.983 23.1386 149.213C22.9413 148.995 23.0002 149.003 22.9841 149.028C22.5725 148.582 22.514 147.979 22.1415 147.201C21.9491 146.977 22.0139 146.992 22.0023 147.024C21.5796 146.59 21.513 145.987 21.1424 145.205C20.9478 144.982 21.0047 145.004 20.9847 145.027C19.9062 141.839 18.5569 138.736 17.1737 135.282C16.934 135.008 16.9899 135.002 16.9737 135.025C16.2916 134.302 16.6086 133.34 16.1656 132.25C15.9371 132.006 15.9932 132.01 15.9694 132.025C15.2938 131.29 15.6113 130.329 15.165 129.236C14.9417 128.987 14.9979 129.003 14.9777 129.024C14.1396 127.977 14.6952 126.695 14.1748 125.271C13.9372 124.997 13.9924 125.008 13.9705 125.025C13.2936 124.294 13.6103 123.332 13.1651 122.24C12.9401 121.993 12.9946 122.005 12.9721 122.022C11.063 112.617 10.2439 103.067 9.50859 93.5074C9.3548 91.508 9.60324 89.5697 10.7432 87.3496C10.9686 86.9462 11.0051 86.9926 10.9763 86.9991C11.0907 86.8763 11.234 86.747 11.5931 86.4247Z" fill="#E5C07B"/>
</svg>
