<svg width="39" height="52" viewBox="0 0 39 52" fill="none" xmlns="http://www.w3.org/2000/svg" role="img" aria-labelledby="logo-title logo-desc">
<title id="logo-title">LinkAidly icon aceituna izquierda solid</title>
<desc id="logo-desc">LinkAidly icon aceituna izquierda color arena.</desc>
<path d="M31.1778 45.9579C30.9418 46.4598 30.8015 46.6517 30.4573 46.8997C29.9623 47.1691 29.6476 47.3842 29.1586 47.8428C28.9583 48.0484 28.9842 47.964 29.0264 47.9769C28.6027 48.4071 27.9994 48.4887 27.2067 48.8546C26.9809 49.0502 27.0058 48.9932 27.0296 49.0131C20.4663 52.3486 13.9268 52.68 7.20286 48.3941C6.95026 48.0671 6.99104 48.0222 6.96934 48.0391C6.77856 47.7857 6.57311 47.5466 6.13947 47.1995C5.94769 47.0601 5.98605 47.0084 5.96214 47.0316C5.77431 46.7822 5.57125 46.5429 5.13773 46.1981C4.94639 46.0596 4.98664 46.0178 4.96302 46.033C4.76618 45.7745 4.55753 45.5311 4.12635 45.1662C3.93925 45.0142 3.99508 45.0109 3.97564 45.031C-0.985511 34.6937 0.690575 24.2489 3.7508 13.3696C3.95863 12.9509 3.99888 12.9936 3.97068 13.0017C4.4246 12.5949 4.4889 11.994 4.80915 11.1894C4.97427 10.9453 5.00088 10.9979 4.97144 10.9978C5.20118 10.7959 5.44152 10.5737 5.81458 10.1377C5.96613 9.94423 5.99226 9.99416 5.96476 9.98799C6.43881 9.58583 6.48699 8.98256 6.81028 8.18776C6.97384 7.94533 6.99851 7.99819 6.96943 7.99623C7.20062 7.79616 7.44053 7.57595 7.80903 7.13961C7.958 6.9457 7.99102 6.99898 7.96662 6.9789C8.20989 6.78402 8.44851 6.57582 8.79826 6.14193C8.93844 5.94948 8.9848 5.98299 8.96606 5.96096C9.21827 5.77407 9.45666 5.571 9.8003 5.13869C9.93812 4.94759 10.0001 5.00002 9.96766 4.97597C10.2873 4.66176 10.4796 4.28572 10.6854 3.54287C10.8361 3.24971 11.1219 3.08358 11.2821 3.04238C12.1143 2.79036 12.76 2.48986 13.7377 2.17589C14.006 1.94628 13.9828 1.99779 13.9686 1.97341C19.3255 -0.249646 24.7403 -0.82951 30.6407 1.72982C31.0477 1.94875 31.0156 1.99816 31.0196 1.9692C31.2106 2.20568 31.4256 2.44619 31.8616 2.80809C32.0548 2.95446 32.0013 2.99511 32.0231 2.96926C32.2196 3.21297 32.4283 3.45308 32.8626 3.80654C33.0545 3.9493 33.0025 4.00002 33.0268 3.97451C33.2293 4.22152 33.4405 4.46523 33.8723 4.834C34.0598 4.98769 34.0033 4.98891 34.0202 4.96633C34.4141 5.41091 34.4882 5.99398 34.8588 6.74251C35.0683 6.94124 35.0237 6.97548 35.0489 6.96584C35.2404 7.23116 35.4452 7.47359 35.875 7.8326C36.0615 7.98171 36.0041 7.99105 36.0278 7.97396C39.163 18.1186 39.3508 28.2257 35.278 38.6461C35.0716 39.0354 35.0073 39.0145 35.0374 39.021C34.5654 39.4128 34.5111 40.0027 34.2184 40.7981C34.0659 41.0427 34.0013 41 34.035 41.0205C33.2492 41.7081 33.1763 42.8487 32.2655 43.8147C32.0719 44.0486 32.0363 44.03 32.0474 44.0363C31.5025 44.4506 31.5178 45.1145 31.1778 45.9579Z" fill="#E5C07B"/>
</svg>
