<svg width="40" height="47" viewBox="0 0 40 47" fill="none" xmlns="http://www.w3.org/2000/svg" role="img" aria-labelledby="logo-title logo-desc">
<title id="logo-title">LinkAidly icon aceituna derecha solid</title>
<desc id="logo-desc">LinkAidly icon aceituna derecha color arena.</desc>
<path d="M27.8163 40.9233C27.531 42.5129 26.2937 42.9219 25.0945 43.7202C23.6218 43.6546 22.5715 44.153 21.2519 44.8297C20.9947 45.062 20.9946 45.0013 21.023 45.0118C20.3121 45.7182 19.3382 45.3875 18.2385 45.8316C17.9869 46.056 18.0041 46.0013 18.0223 46.0234C13.5766 46.6778 9.11891 47.1599 4.35378 45.2724C3.95543 45.0592 3.98515 45.0024 3.97481 45.0299C3.7784 44.7853 3.56239 44.5399 3.12813 44.1629C2.93974 44.0052 2.99577 44.0052 2.97783 44.0267C-0.287948 32.4363 -1.02721 20.9385 4.72929 9.34299C4.93688 8.95911 4.99864 8.99873 4.96858 8.97718C5.53441 8.48292 6.05644 7.93302 6.75807 7.16315C6.93614 6.94154 6.98735 6.99342 6.9655 6.96775C7.21318 6.77927 7.44975 6.5778 7.7863 6.14527C7.91927 5.95292 7.91048 5.91254 7.93083 5.91608C8.13496 5.77885 8.31868 5.6381 8.71477 5.22272C8.92714 4.9481 8.93617 4.93299 8.94432 4.92976C9.22621 4.76478 9.46614 4.56284 9.81328 4.13154C9.95436 3.94236 10.0022 3.99033 9.97496 3.9719C10.22 3.77219 10.4647 3.55909 10.8387 3.12763C10.9957 2.94108 10.9967 2.99955 10.9707 2.98606C11.4116 2.58182 12.0039 2.51264 12.7672 2.14075C12.9772 1.93787 12.9829 1.9958 12.9742 1.96571C17.5653 -0.135185 22.413 0.336952 27.6402 0.752571C28.0453 0.960365 27.9994 0.993996 27.9984 0.965584C28.9659 1.93522 30.3929 1.96616 31.8007 2.79639C32.0726 2.98176 32.0084 3.01081 31.9941 2.97865C32.1958 3.19553 32.4241 3.43281 32.859 3.81049C33.0536 3.96265 33.0021 3.99058 33.0189 3.9665C33.2182 4.21207 33.4316 4.4546 33.8674 4.81901C34.0589 4.96809 34.0077 4.99207 34.0196 4.96644C34.2155 5.20975 34.4297 5.45216 34.8662 5.81681C35.0584 5.96564 35.0083 5.99363 35.0211 5.96796C35.2182 6.21204 35.4325 6.45515 35.8679 6.82307C36.0587 6.97449 36.0062 6.99424 36.0163 6.96806C36.2177 7.21159 36.4363 7.45713 36.8701 7.83857C37.0581 7.9987 37.0003 7.99335 37.017 7.96961C40.8447 14.9847 39.5262 22.1242 37.2517 29.6616C37.0511 30.0446 37.006 30.0117 37.0336 30.008C36.5724 30.4077 36.5107 31.0026 36.2044 31.8039C36.0451 32.0484 36.004 32.0109 36.0318 32.0099C35.5635 32.4124 35.5131 33.0185 35.1801 33.8135C35.0116 34.0543 34.9926 33.9945 35.0239 33.9932C34.8005 34.2011 34.5611 34.4266 34.1838 34.8617C34.0304 35.055 34.0079 35.0037 34.0328 35.0164C33.7917 35.2135 33.5515 35.4269 33.1913 35.8616C33.0455 36.054 33.0056 35.9999 33.031 36.0224C32.786 36.2205 32.5451 36.4299 32.1898 36.8653C32.046 37.0575 32.0035 37.0048 32.0307 37.0249C31.7885 37.2178 31.5492 37.4254 31.2001 37.8603C31.0602 38.053 31.0089 38.0089 31.0309 38.0345C30.7803 38.2275 30.5397 38.4326 30.1894 38.8663C30.0475 39.0571 29.9993 39.0056 30.027 39.0266C29.783 39.2239 29.5408 39.434 29.1802 39.8685C29.0325 40.0591 28.9959 40.0147 29.0219 40.0266C28.7376 40.301 28.4198 40.5541 27.8163 40.9233Z" fill="#E5C07B"/>
</svg>
