<svg width="179" height="149" viewBox="0 0 179 149" fill="#556B2F" xmlns="http://www.w3.org/2000/svg" role="img" aria-labelledby="logo-title logo-desc">
<title id="logo-title">LinkAidly wordmark solid light</title>
<desc id="logo-desc">LinkAidly letras finas en sólido en dos líneas: la palabra Link encima y Aidly debajo, en color oliva.</desc>
<path d="M121.551 44.2081L121.695 37.6561L145.239 16.2001H151.503L134.871 32.1121L131.991 34.5601L121.551 44.2081ZM117.519 54.0001V0.57605H122.631V54.0001H117.519ZM146.823 54.0001L131.055 34.3441L134.367 30.3841L153.087 54.0001H146.823Z" fill="#556B2F"/>
<path d="M88.1583 15.84C91.2303 15.84 93.9183 16.44 96.2223 17.64C98.5743 18.792 100.398 20.568 101.694 22.968C103.038 25.368 103.71 28.392 103.71 32.04V54H98.5983V32.544C98.5983 28.56 97.5903 25.56 95.5743 23.544C93.6063 21.48 90.8223 20.448 87.2223 20.448C84.5343 20.448 82.1823 21 80.1663 22.104C78.1983 23.16 76.6623 24.72 75.5583 26.784C74.5023 28.8 73.9743 31.248 73.9743 34.128V54H68.8623V16.2H73.7583V26.568L72.9663 24.624C74.1663 21.888 76.0863 19.752 78.7263 18.216C81.3663 16.632 84.5103 15.84 88.1583 15.84Z" fill="#556B2F"/>
<path d="M49.5265 54.0001V16.2001H54.6385V54.0001H49.5265ZM52.1185 7.84805C51.0625 7.84805 50.1745 7.48805 49.4545 6.76805C48.7345 6.04805 48.3745 5.18405 48.3745 4.17605C48.3745 3.16805 48.7345 2.32805 49.4545 1.65605C50.1745 0.93605 51.0625 0.57605 52.1185 0.57605C53.1745 0.57605 54.0625 0.912049 54.7825 1.58405C55.5025 2.25605 55.8625 3.09605 55.8625 4.10405C55.8625 5.16005 55.5025 6.04805 54.7825 6.76805C54.1105 7.48805 53.2225 7.84805 52.1185 7.84805Z" fill="#556B2F"/>
<path d="M8.20801 54V3.59998H13.536V49.392H41.76V54H8.20801Z" fill="#556B2F"/>
<path d="M146.494 148.328C144.718 148.328 143.014 148.04 141.382 147.464C139.798 146.888 138.43 146.024 137.278 144.872L139.654 141.056C140.614 141.968 141.646 142.664 142.75 143.144C143.902 143.672 145.174 143.936 146.566 143.936C148.246 143.936 149.686 143.456 150.886 142.496C152.134 141.584 153.31 139.952 154.414 137.6L156.862 132.056L157.438 131.264L172.99 96.2H178.03L159.094 138.536C158.038 140.984 156.862 142.928 155.566 144.368C154.318 145.808 152.95 146.816 151.462 147.392C149.974 148.016 148.318 148.328 146.494 148.328ZM156.574 135.08L139.15 96.2H144.478L159.886 130.904L156.574 135.08Z" fill="#556B2F"/>
<path d="M126.87 134V80.576H131.982V134H126.87Z" fill="#556B2F"/>
<path d="M93.1213 134.36C89.5213 134.36 86.2813 133.544 83.4013 131.912C80.5693 130.28 78.3373 128.024 76.7053 125.144C75.0733 122.216 74.2573 118.856 74.2573 115.064C74.2573 111.224 75.0733 107.864 76.7053 104.984C78.3373 102.104 80.5693 99.8721 83.4013 98.2881C86.2813 96.6561 89.5213 95.8401 93.1213 95.8401C96.4333 95.8401 99.3853 96.5841 101.977 98.0721C104.617 99.5601 106.705 101.744 108.241 104.624C109.825 107.456 110.617 110.936 110.617 115.064C110.617 119.144 109.849 122.624 108.313 125.504C106.777 128.384 104.689 130.592 102.049 132.128C99.4573 133.616 96.4813 134.36 93.1213 134.36ZM93.4813 129.824C96.1693 129.824 98.5693 129.224 100.681 128.024C102.841 126.776 104.521 125.048 105.721 122.84C106.969 120.584 107.593 117.992 107.593 115.064C107.593 112.088 106.969 109.496 105.721 107.288C104.521 105.08 102.841 103.376 100.681 102.176C98.5693 100.928 96.1693 100.304 93.4813 100.304C90.8413 100.304 88.4653 100.928 86.3533 102.176C84.2413 103.376 82.5613 105.08 81.3133 107.288C80.0653 109.496 79.4413 112.088 79.4413 115.064C79.4413 117.992 80.0653 120.584 81.3133 122.84C82.5613 125.048 84.2413 126.776 86.3533 128.024C88.4653 129.224 90.8413 129.824 93.4813 129.824ZM107.737 134V122.624L108.241 114.992L107.521 107.36V80.576H112.633V134H107.737Z" fill="#556B2F"/>
<path d="M58.7374 134V96.2001H63.8494V134H58.7374ZM61.3294 87.8481C60.2734 87.8481 59.3854 87.4881 58.6654 86.7681C57.9454 86.0481 57.5854 85.1841 57.5854 84.1761C57.5854 83.1681 57.9454 82.328 58.6654 81.656C59.3854 80.9361 60.2734 80.576 61.3294 80.576C62.3854 80.576 63.2734 80.912 63.9934 81.584C64.7134 82.256 65.0734 83.0961 65.0734 84.1041C65.0734 85.1601 64.7134 86.0481 63.9934 86.7681C63.3214 87.4881 62.4334 87.8481 61.3294 87.8481Z" fill="#556B2F"/>
<path d="M0.144043 134L23.184 83.6H28.44L51.48 134H45.864L24.696 86.696H26.856L5.68804 134H0.144043ZM9.21604 120.536L10.8 116.216H40.104L41.688 120.536H9.21604Z" fill="#556B2F"/>
</svg>
